<svg id="Layer_1" data-name="Layer 1" xmlns="http://www.w3.org/2000/svg" viewBox="0 0 466.26284 274.84653"><defs><style>.cls-1{fill:#be1622;}.cls-2{fill:#312783;}.cls-3{fill:#009640;}.cls-4{fill:#ffed00;}.cls-5{fill:#be1823;}.cls-6{fill:#fdeb19;}.cls-7{fill:#2e2c7e;}.cls-8{fill:#1d1d1b;}</style></defs><path class="cls-1" d="M219.05821,194.67685m2.26794,24.986c.17163,2.27254.77325,4.5194.69055,6.80324a34.35161,34.35161,0,0,0,1.32133,8.38806c.78208,3.00185.98482,6.31559,2.549,9.03942a10.13811,10.13811,0,0,0,5.25178,4.69654c2.22906.68284,4.479,1.73785,6.85455,1.14648.897-.17138,1.86422.00647,2.75241-.18856a8.90758,8.90758,0,0,1,3.9154.408,4.50007,4.50007,0,0,1,1.68664,1.24913,3.6067,3.6067,0,0,0,4.46128.70125c2.60421-1.33107,5.25726-2.67213,8.2438-2.75414,1.4922-.07966,3.29156-.732,4.41448.62575,2.37685,2.74471,6.22493,1.58932,9.26862.959a28.9363,28.9363,0,0,1,6.59024-.098c1.5562.34318,2.91548,1.03,4.71721,1.06181.91957.01622,1.5632-.2623,2.41182-.18475a40.10486,40.10486,0,0,1,4.11729.924,1.43661,1.43661,0,0,1,1.02726,2.39075,3.22185,3.22185,0,0,1-3.08868,1.96369c-1.06416-.0577-2.14784.35921-3.2235.363-1.01541-.01562-1.71754.39585-2.6844.11971a5.19856,5.19856,0,0,1-2.46365-.07039,6.44576,6.44576,0,0,0-2.60443-.352c-.69664.03826-.60991-.15992-2.56252-.13936a14.58376,14.58376,0,0,1-2.50555-.07181c-3.61921-.29694-5.16015.06336-8.75569.05222a18.22662,18.22662,0,0,1-3.60521-.04786c-1.08762-.17418-2.024-.90559-3.20013-.91683-.407-.00389-.7898-.45869-1.20691-.65959-1.106-.75991-2.331-.18869-3.53528-.06651-1.72293.26749-3.16311,1.44837-4.87308,1.79132a3.997,3.997,0,0,1-2.82328-.39332c-2.99539-1.48014-7.22416-3.61605-10.30074-1.14167-.92421.72791-1.75271,1.5768-2.67155,2.31226a9.06523,9.06523,0,0,1-7.086,1.94433c-2.73956-.6102-3.21019-4.0957-3.51883-6.43442a9.99916,9.99916,0,0,0-1.58232-3.75443,1.96429,1.96429,0,0,0-2.42361-.22169c-2.05471,1.69937-.88636,4.44211-.5687,6.65231a2.10868,2.10868,0,0,1-.75931,1.8283,2.7665,2.7665,0,0,1-3.4866.573,5.31081,5.31081,0,0,0-3.41215-.62573,2.81013,2.81013,0,0,1-2.11654-.29367c-1.07593-.264-2.53261.75275-3.53066,1.2184a7.71912,7.71912,0,0,1-2.64744.95728,1.0569,1.0569,0,0,0-.57225.2571,2.25837,2.25837,0,0,1-1.78534.584,6.89677,6.89677,0,0,1-3.60015-.62061,11.35248,11.35248,0,0,0-2.45979-.87929,46.02065,46.02065,0,0,0-5.15694-.35123c-1.02089.03761-1.65542-.19892-2.66086-.21506-1.3591-.02181-2.91068,1.02385-4.176.91318a.47028.47028,0,0,0-.25456.01565c-1.784,1.03988-3.8443.50542-5.74543.983a6.63767,6.63767,0,0,1-3.30055-.34938c-3.247-1.61544,3.58816-4.60783,5.04238-4.75356,2.04423.11205,3.59207-1.00453,5.10277-2.12611a2.84477,2.84477,0,0,1,1.85373-.66777,4.79713,4.79713,0,0,0,2.49557-.42615,1.92906,1.92906,0,0,1,.99677-.234c2.31551.12717,4.54554-.64256,6.85112-.62516,2.67-.44536,5.44121-.36692,8.0492-1.25064a30.08379,30.08379,0,0,1,4.63732-1.36987,5.4032,5.4032,0,0,0,3.48877-1.37809,22.32,22.32,0,0,0,2.72822-2.14c.97144-.99274,2.18257-1.7932,2.74842-3.159a20.60781,20.60781,0,0,0,2.22846-5.28069c2.18586-5.67595,1.59382-11.94,2.01976-17.85789.20518-.97255-.25758-1.77633-.07916-2.696.13463-5.57849-1.33846-11.1638-1.12014-16.77319a25.53386,25.53386,0,0,0-.68282-5.52349,10.53894,10.53894,0,0,1,.13416-3.93862,8.16658,8.16658,0,0,0,.01256-2.15179c-.09655-6.8956-.19334-13.85362.08576-20.77819a.54542.54542,0,0,0-.01222-.25515c-.66206-1.1617-.189-2.44649-.38082-3.66623a9.428,9.428,0,0,1,.13882-2.77528,63.26208,63.26208,0,0,0,.61429-8.38962c.13955-4.54316.62245-9.0778.55337-13.62905a57.68976,57.68976,0,0,1-.1069-6.01219c.27639-2.75867-.66667-5.38363-.56131-8.11448-.16719-2.23882-.82633-5.001-1.19615-7.24227a35.738,35.738,0,0,1-.20091-4.1853,4.40545,4.40545,0,0,1,.13289-2.24377c.11683-.22866-.50086-.68252-.48867-1.16985.03855-1.54082.00217-3.19285-.03688-4.70741-.32724-2.64039.05381-5.27718-.8994-7.88072a4.16467,4.16467,0,0,0-.8708-.189,2.128,2.128,0,0,1-2.03212-1.6472,12.81867,12.81867,0,0,1-.50269-2.23954,6.7353,6.7353,0,0,1,1.10354-4.50157,3.56791,3.56791,0,0,0,.44858-2.32322,14.90912,14.90912,0,0,0-.80125-2.826c-.69937-1.69271-.03149-4.249,2.01819-4.366a1.3499,1.3499,0,0,1,1.376.97362c.53417,1.2452,1.27683,2.45953,1.1386,3.89829a27.52844,27.52844,0,0,1-.41366,3.01456,1.7392,1.7392,0,0,0,.63671,1.93563c.68162.70493,1.98933,1.27372,1.88737,2.40706a1.74433,1.74433,0,0,0,.8764,1.83124c.72217.5058,1.38453,1.06305,2.51215.55641a11.78861,11.78861,0,0,1,.60779-2.65883c.733-.9449,1.41181-1.86191,2.9161-1.603,1.58665.33554,2.17114-1.54728,3.18754-2.4501a2.38019,2.38019,0,0,0,.45178-2.71743c-.9426-1.96556.82819-2.83029,2.11081-3.93162a.88256.88256,0,0,0,.36061-1.19884,12.59256,12.59256,0,0,0-1.826.84854c-.59408.39634-1.42241.67535-1.73763-.12171-.68992-1.7445,1.05486-3.72947,1.67508-5.50571.42031-1.28248,1.96686-1.62221,2.74481-2.58369.62251-1.21938.33339-4.04169-1.01784-4.70125A3.72231,3.72231,0,0,1,230.1421,60.468c.1277-.17041.2011-.38066.32249-.55667,1.04857-1.5204,1.00962-2.15344-.23679-3.60738-.42675-.04257-.68142.1795-.65744.58319A2.048,2.048,0,0,1,228.39,58.72885c-2.02825,1.38621-2.72948-3.50407-3.14656-2.03307-.47719,1.683-.81617,4.38963-1.20811,6.67432-.08646.50266-.14252,1.08112-.83441,1.12479-.66163.04177-.93273-.3736-1.19219-.9461a27.60073,27.60073,0,0,1-1.57078-6.32615c-.09082-.86061.41952-3.48161-.26071-2.57974-.85331,1.13135.53846,4.80485-1.57081,5.21419-.87452.16971-1.7268-.66028-2.13954-1.71043-.13917-.354-.34379-.68539-.4556-1.04657a4.70275,4.70275,0,0,1-.08178-3.71415c.21155-.42036.5579-1.83918.13051-1.48945-.59386.486-.671.946-1.02515,1.40452a1.93015,1.93015,0,0,1-2.29872.52277,1.58583,1.58583,0,0,1-.62168-1.04354,19.72039,19.72039,0,0,1,.13741-4.29048c.49939-2.17548,3.48381-3.37289,3.33009-5.60956-.09335-1.3582-1.51828-2.50266-1.3296-3.89513.60363-2.91037,1.2784-6.11107,3.42534-8.29442,2.09108-1.63341,1.10908-.67268.23508-3.97729-.77575-2.93312,3.51951-4.67056,6.72475-3.56805a13.259,13.259,0,0,0,1.85571.46386c1.0269.15868,1.76171.61216,1.67342,1.5176-.08385.85979-.28558,1.73928.44543,2.33661.47363.387,1.09152-.2,1.42782-.451a9.07418,9.07418,0,0,1,4.07237-1.38769,3.009,3.009,0,0,1,2.86439,1.14559c.9955,1.27083,2.02045,3.87681-.12471,4.54476a1.71923,1.71923,0,0,0-1.22506,1.61774,2.59222,2.59222,0,0,1-2.09563,2.04845,6.76266,6.76266,0,0,1-2.13507-.216c-.29653-.08564-.54411-.59682-.665-.9638a6.94169,6.94169,0,0,1-.11488-1.50122c-.9273.61782-1.54314,1.49216-2.5284,1.68457-2.04108.39858-2.02558-2.93627-2.66028-4.57144-2.18086.66294-2.20162,3.03854-1.5591,4.75961.68976,2.35025,1.31046,4.76506-1.01192,6.38651a1.15189,1.15189,0,0,1-1.76-.3443c-.48016-1.05821.53428-4.3028-1.26652-3.02823-.52942.37471-.24136,1.28371-.26892,1.93072-.04538,1.06511.08986,2.14662-.044,3.19663-.19671,1.86907-.80455,4.138,1.13587,5.34495,2.02088-.48212,5.51638-2.73993,6.61973.16445a1.29183,1.29183,0,0,0,1.12482,1.06078,9.54363,9.54363,0,0,0,3.10919.25238,4.99651,4.99651,0,0,1,3.35629.54608,5.67584,5.67584,0,0,1,1.87253,2.494,2.75069,2.75069,0,0,1,.17563,2.489,8.04817,8.04817,0,0,0-.28148,5.968,3.62451,3.62451,0,0,0,2.04377,2.59,2.42738,2.42738,0,0,1,1.41676,2.13073,15.53463,15.53463,0,0,1-.422,6.21792,1.62425,1.62425,0,0,1-2.1041.88294c-.18344-.09066-.35454-.20629-.54727-.31985-.41982,1.5896.30086,2.9261.68882,4.31984.33049,1.38377.98871,2.76863.679,4.21362-.421,1.72708-1.14893,4.097-2.98566,4.75879-2.07143.80126-2.23232,1.12816-1.93,3.38141.07312.54507.19776,1.08383.25737,1.63a4.852,4.852,0,0,1-3.93687,5.03913.99148.99148,0,0,1-1.42661-.44152,2.40266,2.40266,0,0,0-1.40565-1.08809,3.69593,3.69593,0,0,0-1.13518,2.09376,22.44832,22.44832,0,0,1-.951,4.11328,1.91773,1.91773,0,0,1-2.907,1.0908c-1.0658-.72919-1.06121-2.32289-1.134-3.52141a6.1805,6.1805,0,0,0-.28435-.91514c-.57917.03587-.64266.35509-.65684.718-.14273,2.32549.0166,4.69749-.55559,6.95691a4.05561,4.05561,0,0,0,.02836,1.53468c.62392,2.12814.08631,4.23664.023,6.35665-.03666,1.22689.26327,2.46023.29069,3.69335-.06465,9.76262.77379,19.55015-.143,29.28452.20319,3.52319-.77355,7.08839-.71817,10.57162.17508,1.67616-.28577,3.27114-.1497,4.92709.57025,5.90584-.67332,11.815-.15222,17.71456-.19372,3.27614.33549,6.1557.301,10.004m2.36151,25.49286-15.47233,38.4212"/><path class="cls-2" d="M387.94643,118.1059c-.00258-.94054-.81846-.98493-.81256-1.62a29.84727,29.84727,0,0,1,.60392-5.53359c.32626-1.04193-.46368-4.44486,1.40741-3.47105a2.33869,2.33869,0,0,1,.87752,1.04483c.5368,1.45959,1.57091,2.93484,2.13074,4.38143a19.562,19.562,0,0,1,.66452,3.44676c.37723,2.09281.1432,4.48569,1.41007,6.21336.82667,1.12735,2.86814.984,3.624,2.09088.98512,1.44252.0215,3.25473-.4592,4.72095a6.97418,6.97418,0,0,0,.09685,3.51466c.21135,1.23822,1.22705,1.99077,1.69368,3.04907.71086,1.61239,2.246,2.44423,3.33448,3.69454a5.86857,5.86857,0,0,1,1.47855,3.437A1.33138,1.33138,0,0,1,402.8961,144.69c-1.01188.28538-1.194.86024-.54877,1.71394,1.34181,1.70125,3.647,3.12166,3.40784,5.32738-.18722,1.72674-2.3717,2.5285-1.34736,4.379a79.23781,79.23781,0,0,1,5.11839,14.06437c.08238.2709.05921,1.02046.56956.94081.40767-.06363.21441-.61674.19367-.81918-.111-2.29271-.88571-4.60959-.30713-6.87924a10.53177,10.53177,0,0,0,.38678-4.41872,16.306,16.306,0,0,1-.81267-4.97252,27.38263,27.38263,0,0,1,1.07006-6.3371,3.0362,3.0362,0,0,0-.53373-3.347,3.6665,3.6665,0,0,1-.47367-3.75793c.74917-2.07338,2.60554-3.62728.64806-5.33933a1.23686,1.23686,0,0,0-1.22217-.32211,1.40032,1.40032,0,0,1-1.72223-1.6226c.5769-2.25321,1.35028-4.47858,2.07568-6.69433.30241-.86594.91377-2.08387.19094-2.62862-.411-.30974-.85953.29733-1.19543.26228-1.32-.13768-1.70162-1.16838-1.23773-2.61127a6.79269,6.79269,0,0,1,2.16268-2.91183,3.5206,3.5206,0,0,0,1.15286-2.83721c.1822-1.50176.231-3.04438.41037-4.55169a1.4393,1.4393,0,0,1,2.495-.88033,3.71654,3.71654,0,0,1,1.18761,2.4862,27.09606,27.09606,0,0,1-.264,7.777,50.09229,50.09229,0,0,0,.5984,7.24364c.39439,3.46359,2.3969,6.56484,2.43279,10.094.03369.94926-.46236,3.14014-1.62127,3.71971-2.06206,1.03125-1.694,1.552-.10636,3.57405a21.70658,21.70658,0,0,0,1.43455,1.75427c1.84239,1.92026,1.064,4.93741-.25823,7.17062-.49807.88722-1.00871,1.07368-2.48.88134.17575,1.1227.29154,2.30978.47718,3.37965.99563.80207.85879,1.92078.9094,3.01105a19.06059,19.06059,0,0,1-.7188,4.86434,1.92,1.92,0,0,1-.43815.76808,1.85069,1.85069,0,0,0-.65047,2.17911c.52772,1.51624.08305,3.06264.35961,4.571a19.06914,19.06914,0,0,1,.25185,3.78362c.719,2.53916.235,5.04416-.15037,7.56448a1.41124,1.41124,0,0,1-1.11267,1.23906c-1.733.14994-1.76726-2.4407-2.55068-3.58935-2.18405-3.20228-2.85806-7.41152-3.66228-11.24722a4.074,4.074,0,0,0-1.907-2.88766,5.26749,5.26749,0,0,1-1.78057-1.9281c-1.09769-1.75108-.46808-3.65385-.644-5.55793a7.29476,7.29476,0,0,0-1.68-4.08517c-.37338-.539-1.10835-.81808-1.64873-1.253a2.8758,2.8758,0,0,1-1.10268-2.56574c.08248-1.7.02187-3.407.02187-5.15876-.007-.00514-.07343-.09587-.14387-.09909-1.574-.07214-1.51558-.09232-2.07853-1.5894a8.75311,8.75311,0,0,1-.4102-2.89119c-.20638-1.91449.64942-3.78076.00707-5.6839a1.75749,1.75749,0,0,0-.99994-.88894c-3.29809-1.10358-1.693-3.86595-1.60489-6.32663a16.65311,16.65311,0,0,0-2.16-5.2993c-.06562-.09758-.17825-.27663-.37168-.25023-.804.10972-.4725,1.3563-.3892,2.03144.14346,1.47712.619,2.9234.71429,4.4033a70.19751,70.19751,0,0,0,.4635,10.25671,9.1081,9.1081,0,0,1-.31977,3.12016,7.54881,7.54881,0,0,0,.35343,4.41612,14.2614,14.2614,0,0,1-.088,6.83687,9.504,9.504,0,0,0,.87277,6.46528,19.73928,19.73928,0,0,0,2.371,2.98674,3.73067,3.73067,0,0,1,.61042,3.24261,2.27352,2.27352,0,0,1-2.10173,1.59966c-1.64584.09021-1.76774.08362-1.85687,1.73531a6.72774,6.72774,0,0,0,.83141,4.43165,16.86888,16.86888,0,0,1,1.30659,2.40541,2.92251,2.92251,0,0,1,.28387,1.23234c-.01155,2.61921,1.35938,5.03864,1.01627,7.708a60.8397,60.8397,0,0,0,.15694,9.29438,7.09642,7.09642,0,0,1-.71483,3.31632,2.57971,2.57971,0,0,1-2.058,1.37841,1.30827,1.30827,0,0,1-1.23751-.52361,9.98451,9.98451,0,0,1-1.68306-4.00368c-1.08912-3.58426.17232-7.20531.62132-10.76895a41.31546,41.31546,0,0,0-.00961-4.48034c-.00236-.13181.01167-.62931-.35677-.57465-.42009.06231-.20235.62411-.23351.84613a58.48714,58.48714,0,0,1-.91273,6.71568c-.18941.34241-.54791.82514-.831.82415a1.51808,1.51808,0,0,1-1.09278-.665,16.28859,16.28859,0,0,1-1.89577-7.61558c-.37766-3.324,4.12275-7.16395,1.79986-9.62119-2.43526-2.57611-3.18757-4.98479-.74811-6.77335.86548-.68747,1.7032-1.41564,2.50369-2.17779.74689-.7111,1.41788-1.99488.5611-2.64921-.37757-.28835-.92965.06087-1.36213-.011a2.43849,2.43849,0,0,1-2.00825-3.09794,23.45542,23.45542,0,0,1,1.40154-3.30616,1.10274,1.10274,0,0,0-.29709-1.59292c-.61805-.41467-.526-.88577-.27284-1.45.2608-.58131.48822-1.1798.69406-1.78309a3.35454,3.35454,0,0,0-1.30606-3.9334,2.50747,2.50747,0,0,1-1.01676-3.02558c.96441-2.64413,1.94315-5.29926,2.66982-8.02259.43115-1.62948.30848-1.77391-1.53165-2.69629-1.23559-.61935-1.67017-1.40608-1.1759-2.73014C385.62649,125.35428,387.95737,122.08706,387.94643,118.1059Z"/><path class="cls-3" d="M191.64709,98.3988c-1.30168-.01-1.73581-1.41731-1.79974-2.65971a10.20707,10.20707,0,0,0-.37016-1.69542l-.36941.05313c.0706,1.00962.11842,2.02146.217,3.02834-.00855,1.88018,1.90915,10.47664-.49308,10.51754-.5043-.00726-.942-.036-1.10122-.63809a24.64865,24.64865,0,0,1-1.06715-4.97953c-.1249-.92618-.21318-5.25285-.88295-1.92571.0542.93332-.5912,1.41738-1.15245,1.90564a1.13693,1.13693,0,0,1-1.747-.63913,24.52458,24.52458,0,0,1-1.3155-7.82553,1.99646,1.99646,0,0,1-2.567.89664,1.19073,1.19073,0,0,1-.72087-.47437,5.31157,5.31157,0,0,1-.92368-3.12292,11.96362,11.96362,0,0,0,.07123-2.04905,7.50346,7.50346,0,0,1,.87725-4.52195,2.0602,2.0602,0,0,0-.14968-1.94066c-.78993,1.10413-1.08742,1.89388-1.84743,2.82235-1.16924,1.05162-2.43643-.361-2.65558-1.58683-.31463-1.67356.21772-3.23656.54588-4.82189.25676-1.34705,2.08957-2.12055,2.92992-3.2686.98313-.96674,1.13592-2.66229-.44289-3.11156-2.14506-.65275-2.31219-3.81612-1.13306-5.42088a6.08852,6.08852,0,0,0,.62557-.96807,2.63947,2.63947,0,0,0,.09718-2.65534,11.127,11.127,0,0,1-1.06484-2.86536,4.36655,4.36655,0,0,1,.88848-3.4846c.54146-.85753,1.336-2.21966.12235-2.90724-1.56468-.78391-.53341-2.50266-.3073-3.78042.57131-2.43357,3.76184-3.2684,3.57593-5.97958a1.18129,1.18129,0,0,0-.41277-.74212,7.55932,7.55932,0,0,0-1.15752-.81309c-2.55282-1.48833-1.22625-4.28787.30207-5.97954a5.76764,5.76764,0,0,0,1.63025-3.23565c.42082-2.91362,3.03712-4.91371,5.63013-5.93526a2.40645,2.40645,0,0,0,.70628-.49647,2.29286,2.29286,0,0,1,3.05846-.14421c.2782.19649.48177.523.7793.6626.57819.27134,1.1894.91036,1.86773.69517.37759-.11979.443-.68262.70488-1.00319a2.48729,2.48729,0,0,1,3.72246-.35465,7.07989,7.07989,0,0,1,2.86205,6.47225c-.01475.16977-.07075.38775.00831.50563a3.91432,3.91432,0,0,1,.58482,2.86962c3.56051.36754,2.78772,4.79571,1.91257,7.17859a8.14277,8.14277,0,0,0-.42586,3.29277,4.2828,4.2828,0,0,1-.07526,1.41033,3.74867,3.74867,0,0,0,.90753,2.988,1.2604,1.2604,0,0,0,1.18826.62382,1.30747,1.30747,0,0,1,1.15438.65259c1.64279,2.06223,2.79651,8.44171-1.07887,8.64337-1.08329.05291-1.05583.058-1.17608,1.05863-.0846.70383-.25249,1.39858-.4016,2.09344a1.07062,1.07062,0,0,0,.43654,1.23181c.13309.09226.18732.29309.31525.39869,3.76161,3.31455.33231,9.87336-2.58136,12.65844a3.40948,3.40948,0,0,0-.41859,3.86921,8.976,8.976,0,0,1,1.36232,5.95143c-.43069,1.78975-.69657,4.12034-2.29426,5.09043-1.64839,1.00088-3.08-.89473-4.36149-2.07844C191.77854,94.06762,196.06089,98.43256,191.64709,98.3988ZM185.77877,89.864c1.13687-1.81281,1.35729-4.18088,3.99617-3.24367,2.59.74083,5.18111-4.772,4.28294-6.84195-.80823.31178-.78139.325-1.21516,1.20334a1.89282,1.89282,0,0,1-.76628.93329,2.62258,2.62258,0,0,1-2.77047-1.16116,3.47581,3.47581,0,0,1-.19431-2.9854c.80024-1.622,1.62322-3.24066,3.64743-3.65125a6.61409,6.61409,0,0,0,3.56041-2.319,5.27609,5.27609,0,0,0,.58818-5.90176,1.45077,1.45077,0,0,0-.694.33469c-2.19325,1.49394-2.20514-1.495-2.09519-2.93946a2.8042,2.8042,0,0,1,1.37886-2.58859c.39272-.251.92652-.40963,1.15461-.76517a12.61122,12.61122,0,0,0,1.59881-3.02334c.52614-1.74052.34435-2.03373-1.51213-2.73955-.19312-.07342-.45957.01414-.62885-.083-.285-.16356-.67233-.37309-.74559-.63817a5.5707,5.5707,0,0,1-.33477-2.24782c.33326-1.38728-.1112-2.83719.36627-4.17362.74563-1.60189,1.86363-3.28356,1.79314-5.0991a23.54655,23.54655,0,0,0-.86661-3.64709c-1.47817-.057-1.87049-.35157-2.22246-1.71346-.46958-1.41346.95677-3.99622-1.42689-4.00379-1.79517-.02852-1.36876,3.14909-2.888,2.7014-1.09182-.32172-1.53974-1.63817-2.27989-2.46469-.30991-.34607-.69953-.47253-1.00337-.166A4.83088,4.83088,0,0,0,184.982,35.6164c-.27725,1.88985,1.05584,3.88-.05718,5.61327a20.63375,20.63375,0,0,0-2.64959,8.82879,2.52919,2.52919,0,0,0,.27529,1.71668c.76792,1.78742,1.96713,3.3763,2.216,5.41061.16149,1.68117,1.19481,6.51949-1.84574,5.71984-.58641-.19-1.15551-.433-1.66767-.62759-.34418,1.06934-.71679,2.01755-.94445,2.99936a3.0996,3.0996,0,0,0,.20965,2.45275c.43879.67369,1.03125,1.24511,1.5147,1.89241,1.16434,1.559,2.15674,3.13256,1.73361,5.27927a5.30913,5.30913,0,0,1-.77167,2.23761c-.7716.98285-1.7206,3.09036-.53782,3.90207,1.32416.7419,1.47606,1.92111,1.45188,3.26951a22.11448,22.11448,0,0,0,.22469,3.69222A2.1595,2.1595,0,0,0,185.77877,89.864Zm-4.13914,2.34709c.3397-.11679.04772-.9274.14017-1.29273C181.3222,90.91452,181.72145,91.84514,181.63963,92.2111Z"/><path class="cls-2" d="M267.29264,54.00018c.92339-.104,1.99593-1.948,2.82061-2.04113a10.5954,10.5954,0,0,1,3.00132.45806.61662.61662,0,0,1,.35775.3303,2.53169,2.53169,0,0,0,1.473,1.71093c1.251.46643,2.4668-1.34756,3.73076-.56853.671.54252,2.016.32172,2.07125,1.424.052.51324-.26845.74194-.65589.99034-1.00126.64193-1.982,1.31786-2.94341,2.018-.42351.44045-.29777,1.232-.47408,1.79249-.22027.76948-.71042,1.35786-1.55419,1.27043a29.08555,29.08555,0,0,1-3.63171-.62848c-.84748-.19876-1.18875-.14095-1.50486.61305a7.54711,7.54711,0,0,0-.57754,3.21752c.17093,2.03927-.238,4.61288-2.77181,4.75295a1.03036,1.03036,0,0,1-1.18412-.7893,17.98231,17.98231,0,0,1-.45134-5.4687,4.76016,4.76016,0,0,0-.30024-1.088c-.95336-.17005-.00907,1.49976-1.04251,2.30538-.94471.73643-1.33946.14-1.6823-.952-1.35893-4.6253-1.18439-1.49124-.94384,1.08116.059,1.062.27305,2.11677.30969,3.1785.04628,1.34107,1.42917,1.97747,1.67262,3.31585.16045.88207.0024,1.68543.63655,2.46751,1.64433,2.16745,1.27951,4.6116-1.05292,6.50877a18.12324,18.12324,0,0,0-2.54559,2.91839,2.31305,2.31305,0,0,0,.52181,2.77821,4.46527,4.46527,0,0,1,1.42659,4.46464c-.08213.255-.58285.95845-.223.87763,2.31555-.52011,2.77308-2.52623,3.79856-4.0319.57984-.85136,1.10444-1.30611,2.07267-.82274,1.75007.87369,2.36367,1.97085,2.10564,3.76494,1.0734.43931,1.06237.429,1.73065-.28844.40741-.43741.85769-.83464,1.28409-1.25463a1.562,1.562,0,0,1,2.16075-.2211c1.25863.67822,2.058,2.17956,3.54365,2.18,1.58626.00046,2.5302-1.998,4.24322-1.5998,1.27852.30329,2.64805.24346,3.91089.591a3.91356,3.91356,0,0,0,2.6201.44319,5.59037,5.59037,0,0,1,3.07288.58091c.7931.35628,1.45088,1.85535.14074,2.131-.46064.11947-.68431.69908-1.02321.97778-1.24819.88891-1.33766,2.16121-1.25975,3.52806a11.86316,11.86316,0,0,1-.04785,2.529,5.50627,5.50627,0,0,1-1.75636,2.66467,3.55694,3.55694,0,0,1-2.32827-3.98245,6.34582,6.34582,0,0,0-.61137-2.96182c-.22979-.55991-.64562-.73159-1.33086-.69922a45.98274,45.98274,0,0,0-4.69073.86621,6.36556,6.36556,0,0,0-1.64326.73336c-.86567.41716-.99235-.62712-1.65761-.93572a2.8941,2.8941,0,0,0-3.32078.9659,3.24763,3.24763,0,0,1-2.414,1.52121c-.22831.00977-.4466.23447-.671.35741-.89265.48914-1.18418.42957-1.90518-.2891a5.09639,5.09639,0,0,1-1.31318-3.00409c-.09547-.61631.14945-1.46137-.35425-1.85174-.41485-.32151-.90866-.00248-1.26092.0886-.801.207-1.5269.50037-1.6836,1.49672-.19235,1.22265-.56078,2.42388-.673,3.65083a4.49247,4.49247,0,0,1-1.13386,2.22529,1.30436,1.30436,0,0,1-1.64861.3396c-1.16652-.697-1.0668-2.2733-.81088-3.44608a1.4633,1.4633,0,0,0-.241-1.41528c-.05835.69461-.0681,1.39781-.18884,2.0814-.40429,1.54683-.65812,3.27313-1.88094,4.41248-.5237.52794-1.19945.39011-1.36463-.33873a59.66153,59.66153,0,0,1-1.51938-10.00965,8.39613,8.39613,0,0,1,.67233-3.60823,1.20826,1.20826,0,0,0-.04965-1.30014,2.76639,2.76639,0,0,1-.25943-1.10732,8.64861,8.64861,0,0,0-.33547-1.88753c-.88169-2.07051.76923-3.69284,1.61866-5.40293a2.25782,2.25782,0,0,0-.115-2.7401c-.16658-.18957-.22712-.4729-.39519-.66046a2.14179,2.14179,0,0,1-.26617-2.49846c.217-.67348,1.74806-3.8427.55222-3.94006-1.31546-.14717-1.24421-.15461-1.46593-1.40195a2.43691,2.43691,0,0,1,1.01973-2.68727,1.72618,1.72618,0,0,0,.53432-.85131c.17671-.54552.26646-1.11921.38859-1.663a2.21949,2.21949,0,0,1-2.35863.3247,1.3014,1.3014,0,0,1-.12962-.44373c.14919-3.10113.36493-6.37219,2.50529-8.81929a5.48944,5.48944,0,0,0,.87616-2.51431,2.105,2.105,0,0,0-.38889.09515c-1.359.75922-2.37309.28571-2.75028-1.19477a4.67715,4.67715,0,0,1,.2294-3.1356c.74423-1.681,1.53124-3.34421,2.34536-4.99264a8.80011,8.80011,0,0,0,1.23811-4.804c-.59154.28963-1.05554.54258-1.5398.74773-.65391.277-1.263.76831-2.06019.40421A2.09647,2.09647,0,0,1,252.31,35.65355c.23652-2.29442.79605-4.43959,2.68-6.057a3.67592,3.67592,0,0,0,1.2194-2.80056,2.63635,2.63635,0,0,1,.7805-2.22037c.09633-.0797.22478-.1967.22839-.30026a1.56349,1.56349,0,0,1,1.19447-1.4892,5.40423,5.40423,0,0,1,2.82809-.5988,1.89784,1.89784,0,0,0,1.06724-.14586,2.83457,2.83457,0,0,1,1.94629-.19174,6.33077,6.33077,0,0,0,2.32811-.01988c2.34807-.32634,3.44125-2.4604,5.61539-.97493.55863.31959,1.23426.94608,1.9113.70724a4.49849,4.49849,0,0,1,3.25662-.1993c1.38124.15129,2.93762.19764,3.75472,1.54993-.34171,1.806-.86952,2.24354-2.70578,2.40691-.75618.06728-1.49878.28013-2.24973.41486-.49217.08831-.68754.43594-.859.85609a23.25772,23.25772,0,0,1-1.03855,2.32686,2.87623,2.87623,0,0,1-3.32294,1.1089,6.557,6.557,0,0,1-1.31371-1.40864c-.54559.37679-.37993,1.18257-.61971,1.81587a5.198,5.198,0,0,0-.20458.61113c-.36723,1.5189-.89069,1.70727-2.19429.86965-1.52-1.0075-1.51768-2.75713-1.64916-4.34409-.124-1.06922-.75645-1.45377-1.73414-1.06625a3.08126,3.08126,0,0,0-2.20953,3.20815,6.91091,6.91091,0,0,1-.28631,1.76883c-.90507,2.61921,1.19474,4.59522,1.78661,6.96457a2.92644,2.92644,0,0,1,.14338,1.00975c-.04327,1.13665-.28242,1.38278-1.42637,1.57993-.16735.02884-.33529.05443-.53832.08725-.09028.94308.61981,1.47746,1.03235,2.14039a8.75754,8.75754,0,0,0,.94265,1.21153,3.9637,3.9637,0,0,1,.01226,4.74628c-.25173.38524-.84013.48246-.94113,1.09145-.07939.47874-.49488.89653-.49892,1.26611-.00918.8398.13322,1.92121.88412,2.28183.77095.37024,1.70805-.76719,2.59194-.75278C265.576,53.12129,266.36868,54.10424,267.29264,54.00018Z"/><path class="cls-2" d="M259.30137,187.44516c.10784,2.01606.02136,4.06292-1.3725,5.66492-.72652.659-2.81263.46006-2.53816-1.09671a11.11182,11.11182,0,0,0-.39559-3.02142,29.2821,29.2821,0,0,1-.02117-4.05458c-.05093-2.47191,1.02381-4.78982,1.39229-7.22842.37979-1.438.65153-3.10819-.59636-4.46195a1.71543,1.71543,0,0,1-.30108-1.75772c.44234-1.59951.75848-3.23349,1.16971-4.84229a2.59827,2.59827,0,0,1,.54846-.82642,8.7148,8.7148,0,0,0,2.15412-4.40783c.04827-.46055.09715-.86578-.37326-1.11126-1.0012-.52244-.86259-1.44573-.7342-2.28763.37744-2.427,2.27743-4.1324,3.241-6.293.20283-.44062.79107-.95607.51678-1.43585-.298-.52134-1.01806-.133-1.39949-.28353-2.961-1.16829-.16552-4.91117,1.46036-6.18022.93426-.78764,2.25269-2.38273,1.11223-3.01416-1.135-.62843-1.98818,1.00883-3.13329.3314a1.678,1.678,0,0,1-.30913-2.11187c.80537-1.35062,1.73459-2.62682,2.5609-3.96569,1.01222-1.66026,2.95877-3.20039,2.64765-5.34556a8.34668,8.34668,0,0,1,2.631-5.6945c.428-.335.72443-.833,1.12466-1.21a1.76606,1.76606,0,0,1,.8529-.51858,12.28384,12.28384,0,0,1,3.27072-.34061,1.53232,1.53232,0,0,1,1.39226.89866c.49843,1.0816,1.00636,2.16119,1.44419,3.26777.706,1.814,2.002,3.61991,2.07395,5.526a20.39793,20.39793,0,0,0,.9452,4.00369,8.61061,8.61061,0,0,1-.43909,5.21063,4.15144,4.15144,0,0,0-.33755,1.48456c-.012,1.5322.04192,3.06542.0938,4.59745a1.98886,1.98886,0,0,0,1.432,2.001c2.69966.78235,2.52842,2.81361,2.21965,5.1898a3.06833,3.06833,0,0,1-.64239,1.4543,3.25033,3.25033,0,0,0-.97727,2.40153,7.22333,7.22333,0,0,0,1.20911,4.44952,3.67408,3.67408,0,0,0,.87557.68376c2.57137,1.56679,3.38544,3.50976,2.709,6.46421a4.28444,4.28444,0,0,0-.20242,1.1373,1.80618,1.80618,0,0,1-1.07435,1.979.783.783,0,0,0-.39175.46975c-.255,1.55434-.74083,3.141.17511,4.63334,1.29608,2.31549,1.25421,5.04517,1.23982,7.61179a6.567,6.567,0,0,0,.66694,2.943,3.00262,3.00262,0,0,1,.31079,1.1938,8.70784,8.70784,0,0,1-.20353,3.16088,1.69755,1.69755,0,0,1-1.85407,1.2617c-1.43547-.01134-1.99549-1.48648-2.2174-2.85941a1.4731,1.4731,0,0,0-.19682-.4672.82757.82757,0,0,0-.161-.19266c-.88212.36678-1.64581,1.09566-2.5157,1.046a2.37966,2.37966,0,0,1-2.03179-1.13149c-.28652-.569.17-1.29887.2561-1.96625.04926-.38193.267-.87169.10845-1.1241-.33842-.53846-.02912-.81893.16238-1.24159.21283-.46975.94271-1.30078.37968-1.69922-.87082-.61626-1.65718,1.20641-2.507.86306-.55208-.22307-1.42169-.70176-1.41309-1.41424.01261-1.04437.80806-1.57258,1.06123-2.36808a12.74266,12.74266,0,0,0,.56034-4.27011,17.05728,17.05728,0,0,1,.55826-3.38092.80807.80807,0,0,0-.61849-1.063c-1.48847-.48165-2.00765-1.36235-1.54243-2.84981.66025-2.11115,1.4383-4.18523,2.14758-6.2814.2418-.71452,1.02774-1.98788.16235-2.24647-1.16035-.34672-2.26587,2.056-3.41575.85147-.21347-.23116-.67036-.20257-.94148-.48929a2.61809,2.61809,0,0,1-.19074-3.22235c.267-.55744.60267-1.5628.09742-1.95775-.8505-.66482-1.92105,1.36306-2.75854,2.04355a1.58619,1.58619,0,0,1-2.6324-.48333c-.23244-.43161-.33232-1.129-.80948-1.229-1.36292-.28546-1.45715,1.36063-1.14926,2.49648.37978,1.40121.72618,2.82412.9774,4.23754a4.53133,4.53133,0,0,1-1.06622,3.9298c-.407.44728-.71713.16518-1.307.21788-1.92909.17235-1.411,3.651-.33841,5.23754a9.046,9.046,0,0,1,1.44043,2.24755c.40814,1.40634,1.13429,2.8196.3268,4.39411-.68863,1.21975-1.70522,4.30047-3.53836,3.06281-.22005-.12416-.46772-.62065-.77577-.4111m14.32461-46.93549c-.21447-.96946-1.78975-1.30186-1.67-2.41616.10872-1.01192.286-2.01961.49326-3.01682a2.36978,2.36978,0,0,0-.98726-2.30516,1.18108,1.18108,0,0,0-1.63563.67793,11.83226,11.83226,0,0,0-.45661,4.77612,2.92463,2.92463,0,0,1-.97419,2.65545,9.33332,9.33332,0,0,0-2.66775,5.45645,30.84349,30.84349,0,0,1-.42448,7.02616c-.1446,1.09823-.837,3.17157.64782,3.40744.309.04909.60172-.29321.87992-.50117,2.21416-1.4915,4.80983-.09871,7.14936.29644.537.12518,1.57225.26,1.43215-.51161-.24969-1.37519-2.25734-1.45565-3.40631-2.21274a1.39,1.39,0,0,1-.62623-1.55374c.34338-1.3446.39816-2.75268,1.23442-3.98778a2.1754,2.1754,0,0,0,.11037-2.436C271.57341,138.79562,274.3268,137.19923,273.91078,135.31875Z"/><path class="cls-1" d="M111.68287,152.46519a6.99022,6.99022,0,0,0-1.39811,3.43428,2.14667,2.14667,0,0,1-2.03605,1.76946,2.23063,2.23063,0,0,1-1.80556-2.29789c.0331-.498.55023-1.24615.08939-1.54463-1.08073-.7-2.03667,1.73859-3.25582,1.65631-2.53111-.54027-3-3.985-2.02279-6.04179.13955-.30446.71756-1.26356-.04314-1.185-1.12962.11667-1.20454,1.9538-2.46,1.38167-1.024-.34734-2.20378-1.87561-1.97937-2.89394.55985-2.19938,2.34461-3.84166,3.74243-5.55545.78511-.923.86269-1.30854.27518-2.365a1.356,1.356,0,0,1-.04509-1.45745c1.30736-1.94967,2.18088-5.16256,5.08409-4.84577.67714.0465,1.96668.91128,2.1528.13375.11806-.49308.33013-.99168.18657-1.29673-.42122-.89507-.04077-1.76833-.08453-2.64389-.07774-.80336.671-1.1133,1.4034-1.15674.95367-.12256,2.17166-1.09612,2.98022-.3785a24.29893,24.29893,0,0,1,2.54944,2.81281c.7375.90494,1.794.99545,2.67015,1.49963,1.37036.78861,1.47493,2.50548,1.855,3.989a2.63786,2.63786,0,0,1-.09327,2.40477c-.57716,1.07547-.2735,2.67656-1.173,3.50594-.84342.77767-1.17746.23976-1.41687-.6478-.17818-.66055.00127-1.48512-.50777-2.1342a1.643,1.643,0,0,0-1.02126-.49507c-.945-.09238-1.47244-.83979-2.18849-1.27433-.24565-.14906-.2897-.64918-.40019-.997-.1322-.41625.02551-1.04241-.35466-1.26655-.7062-.41636-.774.71852-.771,1.1691.01146,1.69021-1.01858,2.86546-1.99984,4.04631a2.02125,2.02125,0,0,1-1.10091.5661c-.88239.18048-1.301-.19254-1.31628-1.08315-.005-.92715.43809-2.57323-.768-2.61969-1.852-.07133-1.98226,1.98015-2.275,3.37848-.31559,1.50734-.62255,3.01659-.953,4.52068-.18475.841-.35231,2.14826.61078,2.26184.32782.03866.57724-.27417.77042-.47533,1.29048-1.3437,4.17846-.61963,5.34251.79959a2.7914,2.7914,0,0,1,.46541,1.26107c.14142.80705.24493.79295,1.13749.86171a4.51125,4.51125,0,0,0,3.55817-1.33,2.49969,2.49969,0,0,1,1.37869-.53376,7.25453,7.25453,0,0,1,3.96444.52964c2.21539,1.12867,1.56164,3.83965,2.03091,5.9634,1.50854.538,2.64581,1.80664,4.20154,2.45163a2.52271,2.52271,0,0,1,1.15275,1.87106c.1825.99881.46347,2.01682-.38482,2.90376a2.03053,2.03053,0,0,0-.33867.81376,2.34765,2.34765,0,0,1-.96451,1.42782c-.912.596-.98311,1.02554-.55057,2.07683.39978.97169.79663,1.42543,1.44612,2.79256a1.03468,1.03468,0,0,1,.15367.48112c-.24981,2.52446,1.745,4.68392.98439,7.20723-.84371,2.76059-1.84722,3.24114-3.84812,4.2482a10.47261,10.47261,0,0,0,.22387,5.60432,5.64475,5.64475,0,0,1,.20226,2.90661c-.4023,1.72369-1.1015,5.46012-3.45191,5.123-.7281-.08927-.9857-.62859-1.12881-1.23659-.201-.85384.18231-2.06758-.549-2.60523-2.02748-1.49055-2.35821,3.47391-2.68268,5.4625.08857,2.66713-3.9466,4.71385-4.56916,1.159-.09613-.79907-.22625-1.59473-.36521-2.38771-.03991-.22772-.08153-.75221-.35824-.65895-1.20437.4059-.588,2.03085-.81926,3.64014-.02514.17488-.09169.41127-.11571.62338-.14705,2.49121-.37231,4.96033-1.95876,7.00751a1.16954,1.16954,0,0,1-1.42138.31552,1.72924,1.72924,0,0,1-1.06081-1.48871c-.15372-1.51315-.18474-3.03839-.3058-4.5555a7.58841,7.58841,0,0,1-.214-3.49515c.19915-.662.20426-1.45635-.41582-1.54446-1.23622-.17567-.62377,2.14433-1.47183,2.98322-2.91672,1.902-4.99337-3.02771-5.22455-5.328a14.43687,14.43687,0,0,0-.32332-2.27588,11.02611,11.02611,0,0,1-1.60155-4.98527A7.49706,7.49706,0,0,0,95.375,180.2146a2.03973,2.03973,0,0,1-.2347-1.826,3.785,3.785,0,0,0,.11432-2.0119c-.18431-.93855.08163-1.33415,1.04681-1.55142a5.19424,5.19424,0,0,1,1.89554-.05913c.27348.0423.464.517.72643.75819,1.85211,1.919,2.24884,4.885,4.59639,6.47a.80535.80535,0,0,1,.29681.53244,16.29861,16.29861,0,0,1,.09149,2.805c-.10826,1.01509.566,1.68022.88158,2.49845.40725.38935,1.24992.22451,1.84526.07492a1.69345,1.69345,0,0,1,.98483-1.62381c1.70584-.90378,3.38-1.34731,4.51611.62344a1.04317,1.04317,0,0,0,1.03763.57649c.98958-.06738,2.03682.16718,2.84777-.75528a1.34871,1.34871,0,0,0,.29943-1.60676c-1.202-2.82711,1.24071-3.66042,3.0927-4.69284,1.03417-.48543.42182-1.27083-.43474-1.42209-.84675.02089-1.71718.62364-2.57745.72468-1.62987.24736-2.52889-.96232-2.229-2.567.39018-2.08768,1.81035-2.94238,3.5872-3.51762.202-.06542.46352-.18462.6207-.11225.98546.45366,1.92809.03884,2.8877-.07406.7095-.08348,1.252-.50026,1.21208-1.16071-.092-.96531-.23367-2.52122-1.45369-2.61374-1.62936.09548-2.13405-1.15817-2.37441-2.24011a4.85491,4.85491,0,0,1,.91239-4.68309,7.348,7.348,0,0,0,.74913-1.33174c.48059-.98525-1.05608-.90009-1.38661-1.44505-1.4701-2.066.98783-6.42444-1.96091-6.68953-.12763-.01148-.25681.05647-.26814.1013a10.88312,10.88312,0,0,1-1.70824,2.8116c-.94369,1.56581-3.12089,2.853-3.62758,1.0658-.20975-.73981-.61944-1.44556-.21618-2.22294.35351-.80365,1.19712-1.7305.84124-2.514"/><path class="cls-4" d="M286.09931,129.07371c-.5948-.90784-.37817-1.14217-.3507-1.42242a6.08174,6.08174,0,0,1,1.70053-3.3098c.298-.34968,1.21179-.88309.76364-1.25523-.33762-.28037-.80341.3654-1.16959.60292a2.98448,2.98448,0,0,1-3.04287.228,1.46162,1.46162,0,0,1-.51325-2.40853c2.36322-2.82446,6.33039-2.65919,9.6402-3.26184.70251-.12135,1.59192-.3448,1.43839-1.26993-.34589-2.2124,3.35934-2.80911,4.9804-3.208a1.57884,1.57884,0,0,1,.49515-.07485c1.76245.27273,2.59332-.11471,3.90094-.0502a20.6544,20.6544,0,0,0,3.77679-.52313c3.2147-.49919,6.49335-.74257,9.67377-1.39911a15.96931,15.96931,0,0,1,5.07334.03519c2.76471.29513,5.31027-.85709,7.9089-1.59618,1.47421-.49394,1.81113,1.36768,3.28287,1.28856.3194.0179.89653.24673.92984.62815.12129,1.389-1.41748,2.61-2.86835,2.59556-1.82254-.15831-3.82524.4012-3.92169,2.22452-.12743,2.40911.56338,5.8141-2.20422,6.49985-2.03977.53421-2.20209-1.79982-2.46116-3.21834-.21087-.98743-.40266-2.2685-1.26617-2.8562-.66637-.45353-.281,1.29939-.013,1.834,1.28259,2.55772.17026,4.65486-1.28442,6.66446-.592.81782-1.21442.8195-1.94407.12034-2.54626-2.41765-.47439-6.27646-.87509-9.15843-.17127-1.23188-1.39743.25088-1.59033,1.21872-.38962,1.872-.23685,4.10629-1.88571,5.42474a1.34118,1.34118,0,0,1-1.76544.10721,3.10287,3.10287,0,0,1-1.66837-2.56453c-.06112-.74106-.54942-2.31438-1.04992-1.685-2.618,3.29218-1.6402,7.51287-2.33088,11.17981a19.13121,19.13121,0,0,0,.57779,5.07341,12.37756,12.37756,0,0,0,1.49265,3.50026,13.09329,13.09329,0,0,1,.88974,6.63909,3.73792,3.73792,0,0,1-.40943,1.212c-.78363,1.80156-1.57959,2.04033-3.22906.99154-.10626-.06753-.21234-.25369-.4014-.20155-.88776.24485-.38144,1.63019-.33764,2.44537.25125,2.01818.4183,4.02555,1.64324,5.78333a7.01925,7.01925,0,0,1,1.40686,4.38847c-.04656,2.04918-1.1315,3.55789-1.98193,5.17324a13.99268,13.99268,0,0,0-1.14313,6.05435c-.08742,2.052.54586,2.76413.69638,4.20456a2.64888,2.64888,0,0,1,.09836.62352,4.71738,4.71738,0,0,0,2.11692,4.57173,1.27132,1.27132,0,0,1,.57,1.06892,4.885,4.885,0,0,1-.1773,2.56838c-.77851,1.54768-1.14908,1.9364-2.95795,1.95913-.89737.11856-.30847,1.37314-.48813,2.27376-.03641,2.55388.02374,5.11558-.25879,7.6621-.20914,1.885.514,5.03642-1.85867,5.42807a1.462,1.462,0,0,1-.97775-.28763c-.59828-.42263-.74643-1.0311-1.06388-1.46849-.09994-.13773-.2589-.26114-.29352-.41326a41.46831,41.46831,0,0,1-.91458-4.30252,25.16591,25.16591,0,0,1,.19257-7.12637c.24029-2.36842.33255-4.76915.73282-7.12782.084-1.03588.42621-2.11245-.32556-3.08754a1.14345,1.14345,0,0,1-.16083-.84761c.38522-1.69249-.14108-3.28492-.50821-4.88665a14.74341,14.74341,0,0,1-.01486-6.67486c.49975-2.44922,1.91345-4.55927,1.8815-7.1135.1318-1.067-1.38712-1.48955-1.592-2.582a8.89959,8.89959,0,0,1-.07776-4.7863c.611-2.44527,1.23608-4.88762,1.90243-7.31828.65534-2.48422,1.82776-4.66479,1.01468-7.297-.37321-1.20819-1.70855,1.24-2.69452,1.00354a1.55209,1.55209,0,0,1-1.28567-1.41334,10.43578,10.43578,0,0,1,1.05432-5.31521,30.08429,30.08429,0,0,1,2.52805-3.64138c1.32428-1.3579,3.27692-5.89785,1.44989-4.66483-1.17305.79167-1.42527,3.02057-3.17707,2.59993-2.31518-.80226-.79234-3.45489-1.16632-5.54182-.24609-1.37327-1.95736,1.02839-2.31183,2.07731-.35363,1.04656-.11847,2.2049-.63339,3.23481a13.33854,13.33854,0,0,0-.57992,1.6795,1.85356,1.85356,0,0,1-1.95795.83311,2.22293,2.22293,0,0,1-1.76373-2.68046c.12121-.57582.75751-1.26183.35034-1.91628-.67548-1.08569-1.92,1.6247-2.89722,2.51444a1.10628,1.10628,0,0,0-.29306.55757,2.69267,2.69267,0,0,1-1.17285,1.76874c-.97891,1.0428-.77873,1.7883-1.63571,1.75253"/><path class="cls-4" d="M443.91226,117.55744c.38537.43215.95086.44651,1.39105.60678a5.75049,5.75049,0,0,1,3.15392,3.32452c.80787,2.05952,3.65141,3.57322,2.3512,6.02807-.77306,2.54036-4.286,2.38317-5.22236.044-.199-.47409-.11653-1.21086-.63751-1.48723-.84265-.447-1.91737.51506-2.76525.05285a2.907,2.907,0,0,1-1.0639-3.563,7.905,7.905,0,0,0,.51973-1.96561c.03325-.39384-.06519-.99723-.41949-1.197-1.315-.7415-1.35742,1.528-1.80594,2.37342-.37681.7102-.65785,1.4769-1.08487,2.15322a2.01717,2.01717,0,0,1-3.66141-.85377c-.00538-.81548.203-1.95892-.57871-2.25921-2.04279-.78471-2.96332,2.34061-3.91551,3.88494a10.93176,10.93176,0,0,0-1.30872,3.57353,5.62226,5.62226,0,0,1-.60646,2.94474,2.00557,2.00557,0,0,0,.17832,1.97926c.63472,1.11052,1.39294,2.19216,2.04717,3.26592.5188,1.43841,1.64578,1.73169,2.96217,1.57747,2.608-.27373,5.19453-1.14374,7.79547-.35282,1.90559.35464,2.5247,1.76611,3.9366,2.88349a3.27925,3.27925,0,0,1,.95265,2.91085,2.3998,2.3998,0,0,0,.7425,2.578.92887.92887,0,0,1,.33591.5336c.17618,1.1248,1.14012,1.10653,1.91732,1.33774a3.87436,3.87436,0,0,0,.75461-.00513,1.84623,1.84623,0,0,1,1.90664,1.60829,10.03665,10.03665,0,0,1-.041,4.018c-.26786,2.14629-1.61022,3.80321-2.21115,5.7722-.25412.83268-.80088,1.639-.38593,2.5744.23344.79017,1.005,1.374,1.26928,2.09477a10.93805,10.93805,0,0,1-.37575,5.81476c-.28312,2.34011-1.25845,2.85616-3.49777,3.29887a16.76892,16.76892,0,0,0-.74211,6.77637,6.97368,6.97368,0,0,1-1.31668,5.52962,2.18308,2.18308,0,0,1-2.61268,1.04861c-.9773-.305-.5319-2.07138-1.44739-1.97123-1.24481.13618-1.58635,1.96118-.82733,3.42859.66088,1.58994,1.13457,3.57613.201,5.19817a3.49932,3.49932,0,0,1-1.80216,1.96669c-.90806.35241-1.57114.30624-1.97925-.59173a5.93936,5.93936,0,0,1-.5981-2.06983c-.11459-1.46263.45393-3.05714.04347-4.44468a.76493.76493,0,0,0-.474-.49725.676.676,0,0,0-.59919.30646c-.66992,1.98005-.30984,4.229-1.66956,5.98588-.75645,1.29109-2.67394,1.67922-2.94-.24014-.26291-2.28219-.93647-4.6889-.73774-6.93219a16.28577,16.28577,0,0,0-.14482-2.9121,2.78733,2.78733,0,0,0-.56232-1.26312c-.51966-.54458-1.46585-.27787-2.15147-.34139-1.66332-.069-2.02627-.34583-2.38036-1.92348a11.056,11.056,0,0,1-.12726-3.06144,2.04284,2.04284,0,0,1,1.39717-1.862c.82753-.26279,1.5185-.70083,1.62718-1.47742.22674-1.6202-.81641-3.12443-1.69494-4.50922-.73831-1.33536-.3495-2.70026,1.44191-2.43643a3.85667,3.85667,0,0,1,2.75111,2.06319c1.33964,2.0339.56748,4.74176,1.15239,7.01749.48365,2.64039,2.3112,5.76118,5.39923,5.37978a6.88958,6.88958,0,0,0,4.23966-1.59406c.68221-.57234,1.55419-.90327,1.84291-1.84527.447-1.56352-.40747-3.17055-.06377-4.765.01688-.24947.13295-.54531.039-.74071-.6795-1.41282.49513-2.18423,1.09909-3.112a3.08812,3.08812,0,0,1,1.26319-.85085,1.99992,1.99992,0,0,0,1.2375-1.80132c.05749-2.41015-.09186-5.0391-1.67433-7.01249a3.07685,3.07685,0,0,1-.49159-3.63856c.97293-1.46859,2.92109-3.18162,2.52123-4.81691a1.81879,1.81879,0,0,0-1.51348-1.2808c-.86675-.15015-1.76362.68165-2.71738,1.01508a1.88508,1.88508,0,0,1-2.399-1.39068,40.06438,40.06438,0,0,1,.17756-5.10319c.031-.63356-.25112-.835-.86318-.57924-2.84615,1.21775-1.95929,4.86075-3.08475,7.15025a3.58456,3.58456,0,0,1-3.03452.531,3.18414,3.18414,0,0,1-1.16924-2.92014c.2586-1.20569.79733-2.98175-.00655-3.92371-.42082-.49311-.78884.23137-.87176.62663-1.13745,3.99815-4.07971,1.12886-4.91094-1.38506a4.8884,4.8884,0,0,1,.58353-4.40353c.708-1.17316.84716-2.90664-.25453-3.24758a.64679.64679,0,0,0-.3724.06567,1.95018,1.95018,0,0,1-2.80525-1.1192c-1.43406-2.49468,1.09207-4.96515,2.43412-6.951,1.01215-1.29671,2.52386-2.42124,2.92052-4.30491.29187-1.386-3.50615-.18383-2.71141-2.05556a11.73528,11.73528,0,0,1,1.81413-2.41329,4.67866,4.67866,0,0,1,4.27355-1.62415c2.25518.23562,4.42124-.28844,5.62672-2.4256a3.92767,3.92767,0,0,1,6.196-.37371C443.5636,115.75314,443.29466,116.86488,443.91226,117.55744Z"/><path class="cls-4" d="M198.87418,168.5087c.25654-1.96616-2.172-5.73712.45782-6.7154,1.18919-.383,1.19355.84231,2.38293.45988,1.33267-.42849,2.00228-.0338,2.279,1.35922.12223.61513.20909,1.23908.3688,1.844.0593.22456.10261.72935.54106.76068,1.57591.11262,1.87413-2.372,2.96947-3.47062,1.45417-1.34157,4.081-1.22764,4.86281.40272.40691.8486-.13238,1.90073-.05644,2.84592.12422,1.54624-.79724,2.61759-1.57978,3.74158-.207.29727-.78527.28177-1.16541.59463-1.17634.96812-.94106,2.72965-1.05761,4.24689.08705,1.9439-2.78022,5.50124-4.33658,2.87607-.272-.67012-.409-1.39376-.64826-2.07881-.23622-.67612-.59082-1.99481-1.4892-1.48849-1.69115.95311-.88781,6.13073-2.531,5.191-1.09025-.62354-1.10758-4.60527-2.9844-2.76382a1.43772,1.43772,0,0,0-.27634.95718,13.7095,13.7095,0,0,1-.33145,2.78857,6.96057,6.96057,0,0,1-2.66724,3.72237,1.513,1.513,0,0,1-2.20022-1.16068c-.149-.832-.1-1.6974-.19922-2.54086-.15489-1.31627.31575-2.584.24766-3.89338-.03591-.69085.19056-2.029-.59449-1.92733-1.06819.13828-1.02718,1.85667-1.61378,2.71256-.84495,1.23278-1.55736,1.232-2.52665.072a5.68736,5.68736,0,0,1-1.94119-3.77477c-.12644-1.77424.01664-3.79295-1.39861-4.86814-1.32944-1.01-1.78833-1.50885-1.9847-2.73991a14.9116,14.9116,0,0,1-.17211-3.83835c.3375-2.02138,1.55614-3.89644,2.16456-5.86.21784-.71693.644-1.59742.28024-2.24022-.34465-.609-.90383.13734-1.2381.35713-1.37084.90144-2.25875.51313-2.49188-1.09127a1.28374,1.28374,0,0,0-.15471-.61624c-.60087-.70365-.28408-1.50922-.12238-2.18122.68771-2.85826,3.44155-4.76283,3.95354-7.58621.345-1.90266-1.32111-3.56558-.39341-5.41585a23.02276,23.02276,0,0,1,6.90488-9.67288,1.617,1.617,0,0,0,.47918-1.37785,11.68773,11.68773,0,0,1,.35826-3.15408,4.35848,4.35848,0,0,1,3.53168-3.27842,1.67229,1.67229,0,0,0,.55149-.152c1.03442-.80441,1.51622-1.4881,2.49512-1.62814a2.13316,2.13316,0,0,1,1.17251.13272,6.24591,6.24591,0,0,1,1.78835.96507c.44545.39129.89442.1722,1.32574.29037a12.98309,12.98309,0,0,1,5.75226,2.7768c.87263.96482,1.73447,1.93991,2.62649,2.8865,1.11157,1.17958.87825,2.53714.43265,3.843-.615,1.46291-2.2353,3.89392-4.00957,1.94838a5.02772,5.02772,0,0,1-1.354-2.68c-.04187-.46819.04266-1.54307-.67109-1.56162-.42136-.011-.30875.56241-.38724.76444-.26025.66961-.504,1.34559-.75891,2.01731-.71542,1.88519-2.9584,2.01583-4.56989,1.073a2.72333,2.72333,0,0,1-.9901-1.39767c-.39344-1.08588-.25138-3.1249-1.85686-2.79348-3.08181.63619-1.84055,5.43819-1.77834,8.20925a4.11606,4.11606,0,0,1-.71758,2.4167c-.61547.99067-.97893,1.12509-2.1212.83237-.99374-.25466-1.4503-.07446-1.81182.901a7.84928,7.84928,0,0,0-.75939,2.66608,4.56831,4.56831,0,0,0,.71682,2.37c1.603,2.76234,2.2104,6.01422.77839,8.99526a.717.717,0,0,1-.96089.41463c-.4111-.10614-.80452-.64233-1.31261-.46137a.92993.92993,0,0,0-.48171.84236c.072,1.73174-.72271,4.09033.95317,4.80922.80648.34595,1.55794-.47782,2.27367-.70831.16088-.0518.3198-.22941.45936-.2092,1.49159.216,3.06822.15914,4.24343,1.38454a3.08528,3.08528,0,0,1,.33567,3.708A7.36273,7.36273,0,0,0,194.286,165.913c.20388,1.402.337,3.48954,1.71783,4.00308C196.94176,170.265,198.71947,169.6945,198.87418,168.5087Z"/><path class="cls-2" d="M170.48185,164.917c-.96,2.36416-1.401,3.40242-1.2475,4.71437.06056.51751-.38868.89628-.53138,1.32634-.67912,1.54284-2.61649-.83878-3.48046-.08543-1.92429,1.67792-.307,4.98463-2.611,6.42579-1.4419.93986-2.47614-.80345-3.70177-1.17121-1.10316-.331-1.63063.66431-1.86494,1.63522-.54559,1.87225-.77156,4.1-2.40772,5.34632-.62049.59165-1.55059.21276-2.30113-.03632a1.308,1.308,0,0,1-.9136-1.47581c.0184-.80406.198-2.00979-.54044-2.4558-.63623-.38428-.85716.66346-.72257,1.196.34793,1.37677-.51273,2.36717-1.08222,3.42615-.9845,1.489-2.8529.207-3.59039-.98909-1.40945-2.36113-.19866-4.81573-.40573-7.33642-.0881-1.06511-1.2266-.21942-1.74341.00169-1.70629.77512-3.22753-.6227-3.30912-2.34579a66.10379,66.10379,0,0,1,.66985-7.76221.84865.84865,0,0,0-.92316-1.05651,2.13823,2.13823,0,0,1-2.1467-2.42573c.30523-2.39011.064-3.80711,1.06878-5.67995.449-2.33056,4.08543-4.20716,2.71344-6.15043-.68518-.97048-2.09953.72513-2.93041-.20432a1.69662,1.69662,0,0,1-.62446-1.5187c.22889-2.434.20472-5.40594,2.52816-6.90072.7304-.44311,1.42473-.94587,2.1557-1.38808,2.52409-1.361,1.88156-4.53249,2.81473-6.79988a6.27444,6.27444,0,0,1,1.72912-2.02414c1.45116-1.15193,2.66325-2.71723,4.70333-2.15483a7.024,7.024,0,0,0,5.02661-.73773,3.73058,3.73058,0,0,1,2.68649-.61162c2.35619.4833,2.751,2.758,3.50055,4.62974,1.10614,2.30119-.61674,5.30386.93826,7.21313.87579,1.07531,2.79856.22513,3.20256,1.78762.25305.86112.84992,1.62544.64288,2.64047a6.81135,6.81135,0,0,0,.1642,1.6524,8.24826,8.24826,0,0,1,.03245,2.16185,3.753,3.753,0,0,0,1.57863,3.79693c2.01542,1.78477,1.59969,4.466,1.332,6.80818a10.09252,10.09252,0,0,1-.65941,1.91408C169.7483,161.80663,170.92967,162.286,170.48185,164.917Zm-24.7599-4.92343a9.18426,9.18426,0,0,1,.02783,2.88384,13.88341,13.88341,0,0,0-.37144,3.9362,1.81757,1.81757,0,0,0,1.11152,1.85882c1.01213.32768,1.45327,1.16082,2.11884,1.77a2.78707,2.78707,0,0,1,.98479,1.74689c-.01079,1.0551.725,1.66,1.04073,2.49468.53723,1.29446,2.84959,1.88264,3.54342.7936.80841-1.26889,1.019-2.70107,1.91275-3.84477.23532-.3011.7571-.65354,1.05238-.58332a3.28447,3.28447,0,0,0,3.0255-.3883c.5245-.46673.27415-1.33353.217-1.9474a15.41275,15.41275,0,0,1-.04961-3.46628,20.80693,20.80693,0,0,0,.11308-3.88432.93826.93826,0,0,1,.07306-.36788c.55332-1.31632,1.17745-2.37013,2.74715-2.49348,2.65681-.19854,1.82722-4.32-.28548-4.974a4.33223,4.33223,0,0,1-2.07231-5.12813c.14075-.49886.72265-.92256,1.18832-1.2683a1.82748,1.82748,0,0,0,.29055-2.79028c-.685-.64118-1.79733-.504-2.66067-.47384-1.4511.05066-2.003-.98428-2.54928-1.92645-.8632-1.48876-.28052-2.98057.361-4.3885.66869-1.46759,1.92111-4.49254-.22492-4.322-.2952.02346-.46885.45042-.59282.73941a31.49974,31.49974,0,0,0-1.818,4.57027,3.71814,3.71814,0,0,1-1.52845,2.2381c-1.51035,1.22886-3.06261-.73455-2.7941-2.2135.07461-.37745.19332-.746.28335-1.12076.18-.74907,1.41706-1.908.58569-2.48423-1.16857-.81-1.33347,1.83254-1.6178,2.79964a15.03437,15.03437,0,0,1-3.67153,6.2124,1.20679,1.20679,0,0,0-.474.96547,13.40205,13.40205,0,0,0-.70763,3.35508c.21149,1.76409-.95055,3.4276-.38653,5.19089m.02,2.58611a4.07594,4.07594,0,0,1,.01961.80908"/><path class="cls-2" d="M109.06947,70.55372a3.28807,3.28807,0,0,0-.68619,3.525c.46237,1.233.75033,2.87218,2.21169,3.27294,2.56018.75305,2.04878,3.57445,1.64482,5.56277-.10743.59963-.57214.85438-1.19576.99582-.6555.17462-2.90481,1.05225-1.67283,1.85446,1.10093.52158,1.98375,1.5133,3.18787,1.5742,2.36973-2.4,4.2234-3.93211,6.55925-.51224,1.18192,1.469,2.6336,1.26768,3.3468-.46348.4584-1.1127.52616-1.19135,1.63262-1.16094,1.1891.03269,2.38146.08465,3.56309.21349,1.19044.12982,1.35476.35039,1.47564,1.50752.122,1.16779.49829,1.37949,1.68422,1.143a3.35438,3.35438,0,0,1,3.16569.76064c.18044,1.09079.64157,2.17473.04829,3.32978-.5183,1.00905-1.05018,1.88569-2.38118,1.76305a.86612.86612,0,0,0-.61183.12195,1.8235,1.8235,0,0,1-1.92412.28847,2.78474,2.78474,0,0,1-1.7472-.969,1.8564,1.8564,0,0,0-3.20073.35981,29.582,29.582,0,0,0-1.39836,3.70817,1.4787,1.4787,0,0,1-.97939.59195c-1.529-.04847-3.54117-.93531-3.83113-2.99063a4.34173,4.34173,0,0,0-.542-1.18365c-.91078-.08361-1.1335.45565-1.365,1.042a25.28148,25.28148,0,0,1-1.179,2.70814c-.66847,1.24366-.991,1.345-2.523,1.01725a21.05154,21.05154,0,0,1-.24062-3.85778c-.01634-.57537-.02851-.575-.74757-1.057a2.00172,2.00172,0,0,0-.71565,1.8013c.02228.93755.06886,1.8759.14634,2.81048a11.48054,11.48054,0,0,1-1.51863,6.27621c-.57214,1.11062-1,1.20136-1.9872.38889a3.40593,3.40593,0,0,1-1.141-2.30554,18.43482,18.43482,0,0,1-.23939-5.96906,30.30679,30.30679,0,0,0,.07345-3.22074,2.17705,2.17705,0,0,0-.3131-.7371l-.25648.035a15.34012,15.34012,0,0,0-.20751,2.07833c.03439,1.15109-.74814,1.8818-1.29088,2.72909-.11352.17723-.53637.23464-.8082.217a2.2366,2.2366,0,0,1-1.68564-1.68012c-.19166-1.91464-.36337-3.83126-.55012-5.7464a4.56179,4.56179,0,0,0-.213-1.49977c-.42619-.88148-.11684-1.7742-.18713-2.65332a2.86211,2.86211,0,0,1,1.17356-2.43525,3.17867,3.17867,0,0,0,1.23856-2.40359c.1165-1.28132.34668-2.552.48263-3.832a4.96074,4.96074,0,0,0-.04067-1.5377,4.501,4.501,0,0,1,1.308-4.31139c.88407-.91449.87593-.92235.784-2.36156-.91922.82146-1.48755,1.853-2.61144,1.89449-.40839.01508-.58522.1726-.86569.0927-.61176-.17429-1.39283-.19069-1.56624-.93459a2.98034,2.98034,0,0,1,.472-2.46007c1.19566-1.65844,2.45681-3.27084,3.61845-4.9523a14.32133,14.32133,0,0,0,2.57634-9.002c-1.11171-.41066-1.25329-1.215-1.04769-2.20678.64812-4.27143,4.03228-7.88664,3.29863-12.43378-1.42185.42294-3.55514,2.4052-4.6648.94226a2.08955,2.08955,0,0,1-.42352-1.39679,6.64843,6.64843,0,0,1,1.99862-3.80753c2.9242-2.942,3.05737-7.4025,3.04128-11.30646-.04527-2.14258.70158-4.80987,3.04843-5.35961a.86589.86589,0,0,1,1.14332.54353,9.95019,9.95019,0,0,1,1.10552,3.35541c.08856,1.86549.52307,3.7144.61509,5.58a10.33935,10.33935,0,0,1-1.10868,3.507,1.62948,1.62948,0,0,0,.17369,1.6829c2.09024,2.77708,2.04306,7.30644-.95913,9.41491-2.09494,1.06743-1.18755,3.50841-.30312,5.13331a5.1622,5.1622,0,0,1,.57342,1.67564c.45309,2.90218.95878,6.04752-1.016,8.60443-.61681.79862-2.44315-.90565-2.67557.43917a3.7864,3.7864,0,0,0,.13769,1.8994,69.80075,69.80075,0,0,1,2.84984,8.34235,3.90748,3.90748,0,0,1-.76075,3.13486C111.09856,73.25242,109.92074,71.43167,109.06947,70.55372Zm6.79561,21.76577"/><path class="cls-4" d="M8.39434,184.4281a33.786,33.786,0,0,1,2.44727-7.90363,12.51615,12.51615,0,0,0,.76889-3.862c.19362-1.34235-.33181-2.78754.34974-4.04824a35.26247,35.26247,0,0,0,2.30691-7.0239c.29965-1.15511.49973-2.33571.77359-3.498a1.26491,1.26491,0,0,0-.42195-1.38157c-1.48193-1.3116-1.396-3.06142-1.02541-4.72407.54549-2.61458,2.91-4.16674,4.59778-6.02163.644-.75546,1.84122-1.623,1.56812-2.67346-.51833-1.99368-1.61208-2.5793-1.25019-4.07774.47911-3.15792,2.93506-5.28535,4.64937-7.8323.25133-.35817,1.18173-.96754.654-1.53184-.43524-.46544-.93287.26338-1.20681.41938-1.11965.63754-2.1263-.01942-3.13593-.30883-.26256-.07528-.53048-.67766-.52494-1.03372.0079-3.36305,3.56652-5.24532,5.85407-7.10446,1.4184-.97776,1.64755-2.7517,2.62756-4.08215a1.841,1.841,0,0,1,3.38034.79194c.15077,2.637,2.234,4.73293,2.34044,7.3761a7.896,7.896,0,0,0,2.59577,5.9107c3.27677,3.53691.15692,9.14622.39412,13.34122.03937,1.49936.10893,2.99941.22209,4.49481.57774,4.13875.19723,8.542,1.86652,12.4178.77325,1.90321,1.646,4.48571,3.82934,5.21826a3.827,3.827,0,0,1,2.17812,3.27721,5.78943,5.78943,0,0,1-1.81474,4.9488,2.11852,2.11852,0,0,0-.49994,1.513,3.97684,3.97684,0,0,0,1.331,2.88381,11.2,11.2,0,0,1,2.59833,4.33333,10.15642,10.15642,0,0,1-.41455,4.84394c-.34643,1.0524-1.33271,1.22507-2.36017,1.30364-.34209.77412.16626,1.46007.42111,2.14567a7.163,7.163,0,0,1,.54891,4.47813,2.54737,2.54737,0,0,1-.73881,1.6155c-.27635.22348-.21313.838-.3623,1.25452-.19975.55774-.19281,1.282-.99091,1.429a1.65168,1.65168,0,0,1-1.77425-.9378c-.12-.21342-.18733-.52246-.36989-.6241a3.58813,3.58813,0,0,1-1.72876-3.241c-.09015-1.178-.39409-2.338-.5413-3.51372-.32967-2.27938.023-4.59191-.10247-6.87061-.12926-2.44862-1.10176-4.997-.58558-7.43679a2.68492,2.68492,0,0,0-1.24134-3.30515c-.69087-.47315-1.97706-.9827-1.47838-1.98563.73046-1.46911,1.15536-2.78448,1.74841-4.177.15754-.36992.46285-1.421-.24457-1.66316-.58341-.19973-.72622.61557-.92984.8687a2.70632,2.70632,0,0,1-4.731-2.03362c.05669-.82487-.00059-1.79338.96727-2.30286a41.02,41.02,0,0,0,2.20082-3.49575c.11307-.19225.68562-.61889.2741-.94616-1.07632-.856-2.04059.135-3.33165.46249-1.69333.42955-1.855,2.85043-2.03686,4.56709a1.11877,1.11877,0,0,1-1.07222,1.13759c-.63658.02206-1.27088-.08629-1.50752-.824-.34365-1.07127.31465-3.31131-1.08182-3.49511-1.78658-.23514-2.05276,1.62667-3.33488,2.7788-.91743.82441-.55074,2.53991-2.01856,3.06871-.20314.0732-.37318.63221-.32681.93027.34354,2.29114,1.23392,4.46,1.76933,6.70145.38973,1.7261-.45328,2.97986-1.77408,3.99447-.91277.73-1.65346-.35538-2.44256-.8062-.53263,2.1741.07273,4.32161.11692,6.47212-.10486,4.44611,2.87341,8.66563,1.31235,13.0889-.46438.954-.677,2.475-2.05565,2.324a2.21733,2.21733,0,0,1-1.66915-1.73362c-.60528-2.90708.51318-6.88046-1.84272-8.76259-1.33422-1.0659-4.323,1.7047-4.323-2.08807m19.87906-58.05782c-1.62207-1.87706-2.20853,3.89353-2.20555,4.24686.03,3.56352.14909,2.42174.21117,4.78652.35473,3.64429-.39723,5.72233-.85157,9.35368a27.97992,27.97992,0,0,0-1.03864,3.37686A1.92555,1.92555,0,0,1,22.193,152.7808a2.1459,2.1459,0,0,0-1.72582,2.43288c.09223,1.45422-1.04754,3.23355.18754,4.12444,1.25774.90724,2.49759-1.1513,3.43614-2.07771a5.81622,5.81622,0,0,1,5.53931-1.77939c.55258.1183,1.27477.6395,1.77437.21842,1.25807-1.06033.22839-3.16511.21311-4.68555-.00617-.61366-.04911-1.46756-.83373-1.67355-1.28094-.33624-1.41626-1.30823-1.58857-2.35425a29.3948,29.3948,0,0,1,1.13828-9.47229c.39985-1.50161.39985-1.50161.02509-3.48936"/><path class="cls-4" d="M164.00953,53.66594a1.92855,1.92855,0,0,1,1.06558-.15368.47885.47885,0,0,1,.1898.11759c.843.791,1.70047,1.58158,1.62118,2.91107-.10822,1.81439-.14049,3.63536-.31426,5.44288a.52686.52686,0,0,1-.01723.09209,58.27414,58.27414,0,0,0-1.77371,7.40208,3.13338,3.13338,0,0,0,1.27088,3.34454,2.88865,2.88865,0,0,1,1.1588,3.03894,1.53819,1.53819,0,0,0-.00884.64071c.45119,1.93131-.31164,3.59492-1.13579,5.24613-.53926.89559-.75568,2.17445-1.81285,2.5995-.30583.12117-.71039-.01966-1.00237.15817-1.34612.81983-.67088,2.69935-.305,3.98354a7.51351,7.51351,0,0,1-2.06778,7.3651c-.507.568-1.01243.88685-1.7778.49224-.20966-.1081-.55345-.33449-.873-.12233-.36485.24227-.35433.82792-.31626,1.20654.14337,1.4256-.61779,2.55933-1.16957,3.73523-.54021,1.15127-1.39759,1.353-2.58444.82749a7.13718,7.13718,0,0,1-.65923-.39587c-.21752.69037-.39039,1.29729-.60015,1.89121a1.33324,1.33324,0,0,1-2.16331.52908c-1.39583-1.53527-1.38723-3.49869-1.49417-5.44a.48985.48985,0,0,0-.56558-.4486c-1.07865.16023-1.45658-.16035-1.92072-1.40308-1.22831-3.02814-1.0805-6.3291-1.07084-9.54254a.483.483,0,0,0-.43045-.48351c-.86881-.08791-1.71721-.30714-1.84-1.29472-.19773-1.77907-.8668-4.23057.56471-5.655a1.63724,1.63724,0,0,0,.73894-1.50291c-.2292,0-.43006-.01678-.62724.003-2.21315.09123-2.391-3.13094-2.248-4.66148a15.72771,15.72771,0,0,1,2.14769-7.113,2.57949,2.57949,0,0,0,.18193-1.33125,17.62287,17.62287,0,0,0-.266-1.81539.50582.50582,0,0,0-.24831-.34815c-1.25138-.71407-1.53927-1.37476-1.1057-2.93883a34.65824,34.65824,0,0,1,1.52321-4.492c.36313-.84058,1.19384-1.47368,1.59024-2.30666.68684-1.44326,1.68591-2.80354,1.79472-4.45028a5.67171,5.67171,0,0,1,3.85978-5.14061c1.58545-.6805,4.07579-1.23122,5.48825.2111.13745.16852.45051.49861.76681.33922.32067-.16159.20361-.62181.21-.8974.02483-1.06816.70851-1.53862,1.56856-1.96909a1.97171,1.97171,0,0,1,2.24459.318,3.38236,3.38236,0,0,1,1.37613,2.99656,10.51867,10.51867,0,0,0,.271,1.68357.54113.54113,0,0,1,.00711.12627,31.18407,31.18407,0,0,0-.19212,3.61987c.06625,1.11091-.37855,2.32782.41825,3.42816A.47589.47589,0,0,0,164.00953,53.66594Zm-12.54011-4.993a.49976.49976,0,0,0-.253.31555,2.55977,2.55977,0,0,0,.58872,2.32219,2.84671,2.84671,0,0,1,.27509,2.91169,1.302,1.302,0,0,1-1.08519.95356c-.38122.08068-.90413.27464-1.0473.57077a9.538,9.538,0,0,0-.67756,6.24717,2.80714,2.80714,0,0,1,.09526,1.09989,4.71252,4.71252,0,0,0,1.36471,4.66229,3.99336,3.99336,0,0,1,1.32438,3.73048,12.32778,12.32778,0,0,1-.51372,1.55745.49412.49412,0,0,1-.31278.30568l-1.62228.509a.48709.48709,0,0,1-.47607-.10669l-.85291-.78656c-.606,1.695.71354,2.35608,1.26726,3.67584a7.88657,7.88657,0,0,1,.02453,4.914c-.25073,1.06752-.2758,1.72792.65227,2.40823a2.556,2.556,0,0,1,1.01606,2.9302c-.14873.536-.42153,1.40182-.52815,1.94776a8.00522,8.00522,0,0,0-.273,2.46554,12.55675,12.55675,0,0,0,1.007,2.89859c.05367.13556.31374.43488.59655.324,1.53976-.60368.06821-3.63362,1.38689-4.73574.8482-.56415,2.86439.10374,3.46706.94378.502.69977-.13224,1.62682.33108,2.18864.40174.48714.89106-.097.99944-.56763.51941-2.53215,1.83681-5.3563-.05647-7.6558-1.08909-1.58081-.197-3.96773,1.00451-5.27833a11.62653,11.62653,0,0,0,1.3635-1.68191,3.21258,3.21258,0,0,0,.37518-2.45222.47705.47705,0,0,0-.43255-.37339c-1.80052-.12671-3.58026.37415-3.11946-2.17966.26559-2.83642,2.66319-4.6706,3.31862-7.3266a.58571.58571,0,0,0,.01322-.0746c.17345-1.54142.42021-3.07691.70146-4.60278a3.49031,3.49031,0,0,0-.187-2.3735,17.45488,17.45488,0,0,1-.85272-1.84083c-.56971-1.01261-.03993-2.30894-.7456-3.20926-.22349-.11479-.34725.00815-.55457.03792-1.18058.322-1.40911.2167-1.80441-.907a14.47365,14.47365,0,0,1-.20238-4.00415.49225.49225,0,0,0-.45173-.47692c-1.11162-.08163-1.22407,1.19348-1.93493,1.63512a.4487.4487,0,0,1-.42908-.0091,4.022,4.022,0,0,1-1.09551-.642A1.28415,1.28415,0,0,0,151.46942,48.673Z"/><path class="cls-1" d="M350.25041,171.5718c-.19527-.28237-.488-.1675-.65227-.18574-2.91346-.13642-4.17348-3.29165-3.14939-5.7954.45787-1.818.60274-3.787.94353-5.65347.0359-.244.17771-.58765-.04069-.8205-.16-.17055-.43228-.09386-.621-.06967-1.319.16891-1.97077-.76919-1.99337-2.29906-.04762-3.22849,1.7171-5.65994,3.49244-8.086.59179-.80868,1.4834-1.75937,1.08209-2.64026-.18865-.41411-.70481-.45225-1.03472-.64453a1.02487,1.02487,0,0,1-.53037-1.207,28.42137,28.42137,0,0,1,1.74811-4.52894,9.50324,9.50324,0,0,1,2.222-2.22518c1.62261-1.44,2.862-3.07225,2.67-5.38087-.14044-1.68824,1.24945-3.05237,2.39095-3.66747,2.17252-1.17067,4.39823-2.24345,6.61128-3.33783a3.66588,3.66588,0,0,1,4.08545.34762c1.117.56291,2.14085,1.16255,2.38182,2.58681.32737,1.46694,1.335,2.78283.8209,4.3901a3.90443,3.90443,0,0,0,.80657,3.01985c.96173,1.60877,1.94537,3.216,2.74073,4.908a15.53147,15.53147,0,0,1,.7629,3.61187,9.95667,9.95667,0,0,1,.04166,4.017,5.437,5.437,0,0,1-1.23174,3.18635c-1.278,1.52065-2.06628,3.56819-1.05682,5.03332.26431.38364.881.15756,1.13044.43639.57605.644.5384,1.53287,1.13486,2.22065a3.92915,3.92915,0,0,1,.9998,3.64416,5.61729,5.61729,0,0,0-.07308,1.14991,5.94225,5.94225,0,0,1-1.97,3.84654c-1.13646,1.20892-2.45323,1.21272-3.88359,1.11111-1.45854-.10364-2.10964.37488-2.28686,1.7795a6.66739,6.66739,0,0,0,.14753,3.17,4.02612,4.02612,0,0,1,.08737,2.889c-.49022,1.25758-1.64824,1.2762-2.64152,1.45492a1.7017,1.7017,0,0,1-2.054-1.32158c-.12982-.42855-.07134-1.27351-.716-1.39131-.50841-.09291-.78237.53039-.89627.82638-.54143,1.63783-.867,3.3749-1.56186,4.96542a2.94522,2.94522,0,0,1-5.20968-2.65269c.129-.4811.73223-1.29112.25087-1.48731-.95281-.38834-1.27923,1.50992-1.31213,2.62472a2.92137,2.92137,0,0,1-1.66762,2.93324c-.76406.34-1.46162.30989-1.78707-.45428a7.02375,7.02375,0,0,1-.70326-2.45,21.34324,21.34324,0,0,1,.37155-6.12778C350.24653,172.74723,350.57839,172.04608,350.25041,171.5718ZM369.923,148.15634c-.80233-.48469-1.61207.34366-2.45641.32844a2.35559,2.35559,0,0,1-1.67774-2.37665,8.233,8.233,0,0,1,1.26572-3.71714,7.004,7.004,0,0,0,.89517-2.11055c.31223-1.1075-.34685-1.80227-1.49847-1.68477-1.572.1604-2.322-.55414-2.21837-2.174.10627-1.66117.252-3.31994.39238-4.97875.25336-2.576-3.61935-2.399-4.31944-.422-.52927,1.05209-.63162,2.397-1.282,3.34187a6.66638,6.66638,0,0,0-1.49757,3.957c-.13022.9687-.86727,1.66131-1.18805,2.50263a19.69285,19.69285,0,0,1-2.697,4.33744,1.3307,1.3307,0,0,0,.02654,1.76769c.96353,1.09833.87207,2.47351,1.10444,3.75176.24907,1.15331-1.03029,1.71064-2.02121,1.86708-1.43662.336-1.60971.5485-1.547,2.02189.28852,2.85157,2.49612,5.49876,1.78634,8.41464a.83123.83123,0,0,0,.45387,1.08321c1.376.57914,1.31662,1.82194,1.22345,2.94487.0056,1.73731-.904,4.87822.98162,5.23349,1.67295.3152,2.4349-.47107,4.87852-.576.86789-.03727.92546-1.23232,1.02451-2.00052a1.83764,1.83764,0,0,1,1.16887-1.6938c.70493-.18313.7525-1.02329,1.4684-1.25472.61639-.19926,1.13439.93863,1.85778.751,1.18026-.30614,1.622-1.88758,2.33284-2.92583,1.05619-1.54036,3.16234-4.53357.122-5.19412-.95738-.28154-1.10756-.45913-1.04443-1.44895a11.513,11.513,0,0,1,1.86153-6.22763C369.92211,150.68157,371.23626,148.9497,369.923,148.15634Z"/><path class="cls-3" d="M75.2141,171.3853c.93822-.68512,2.47134-1.07041,3.25525-2.37713a1.28839,1.28839,0,0,0,.15292-1.08024c-.21019-.5-.84608-.6135-1.24569-.91815a2.81606,2.81606,0,0,1-1.01369-3.30916c.44223-.97235.71585-2.02626,1.20608-2.9704a4.83694,4.83694,0,0,0,.09559-2.67448l-.23583-2.7798s-.1638-2.04949-1.03867-2.2743c-.72538-.18639-1.43952.24417-2.14442.32656-2.1498.25132-3.10239-1.27053-3.27782-3.38124-.08227-.99.56437-1.752.771-2.6574.145-.63518.35382-1.70624-.44417-1.61462-.67039.077-.697,1.06744-.97777,1.59366-.78854,1.34478-1.46357,4.13238-3.45019,3.63989a2.5937,2.5937,0,0,1-1.8393-2.24034,6.11583,6.11583,0,0,0,.025-1.01889c-.06658-.39774.13817-1.29647-.40523-1.29489-1.84222.00534-1.09464,5.908-3.66776,4.01194-1.43157-1.43176-1.57991-2.3683-.81794-4.36772.31216-.81911,1.609-2.02.78055-2.76756-1.08728-.981-3.05874,1.363-3.68855.14332-1.42876-2.76695.27116-5.17395,1.85791-7.41169.29542-.41664.4892-.90422.745-1.35042a.80836.80836,0,0,0-.08752-1.05275,1.14837,1.14837,0,0,1-.28661-.79355,9.19416,9.19416,0,0,1,3.21335-5.95535c.98477-.49291,2.03362-1.02977,3.0295-1.55066.35344-.15508.58424-.32315.62164-.70877a1.41135,1.41135,0,0,1,.7292-1.24941c1.10076-.68451,2.409-1.33142,3.38307-.82818,0,0,.544.62948.71236.83417.37716.45846.35591.75314.80614,1.05589a2.78771,2.78771,0,0,1,1.07066,1.57113c.3046.87987,1.63417,1.32787,1.69222,2.41323a17.0507,17.0507,0,0,1-.28518,2.22929,3.22469,3.22469,0,0,1-1.53762,2.23352c-.52117.4039-1.45632-.00972-1.89658-.82895-.4743-.876.18831-2.53919-.77046-2.84825-.87093-.28075-.82175,1.1603-.98174,1.823-.13984.57927-.072,1.21222-.23593,1.78113-.34048,1.02836-1.04355,2.93625-2.40047,2.25157a1.49378,1.49378,0,0,1-1.03955-1.58725c-.04147-.48522.42136-1.38607-.07969-1.53021-.6738-.19385-1.26088.68742-1.10231,1.27775a11.8299,11.8299,0,0,1,.02726,3.0958c-.00924,1.04988.76819,1.82249,1.04862,2.80645.555,1.28154,1.30711,2.33048,2.90384,2.20437a2.54035,2.54035,0,0,0,1.27247-.41973,3.19764,3.19764,0,0,1,4.09342.31978c.78515,1.049,2.28483,1.4805,2.72468,2.75249a27.96225,27.96225,0,0,1,1.11136,4.031c.15572,1.22351.52043,2.506,2.05707,2.92511a6.98746,6.98746,0,0,1,3.13942,2.31868,7.48542,7.48542,0,0,1,.47485.58217c.43192.57974.679.91262,1.107,1.49523.07436.1012.37709.45987.37766.56643a6.91223,6.91223,0,0,1,.712,5.41222c-.33609,1.82072-1.8962.73988-2.67609,2.57358-.43714,1.02783,1.1424,1.75355,1.86873,2.531a3.77442,3.77442,0,0,1-2.27618,6.26188c-.74839.16416-1.57669.0673-2.19565.81061a2.07655,2.07655,0,0,0-.49582,2.53556,9.45256,9.45256,0,0,1,.96429,3.69708c-.14434,2.23315-3.39459,5.63849-4.48623,1.93248-.1111-.25337.17558-1.07316-.42121-1.07057-1.25735.00545-.81417,2.06466-1.12368,2.97374-.37674,2.59649-2.18831,5.17219-5.07016,3.12349-1.027-1.079.433-3.73275-1.0206-4.13578-1.52386-.42251-1.48079,2.349-1.23665,3.69145a4.575,4.575,0,0,1-.81673,3.88607,1.66185,1.66185,0,0,1-1.70666.92631c-1.57868-.30021-1.497-3.24557-1.41185-4.50136.03758-1.52793.86394-3.81829-.48841-4.63749-.59035-.35762-.90957.30163-1.02748.745-.2536.95363-.95756,1.03874-1.79051,1.024A1.69387,1.69387,0,0,1,58.36,182.43885c-.5141-1.61193-1.02211-3.257-.23546-4.96351.28093-.60945.38816-1.29651.631-1.92644,1.11312-2.75674-1.30193-5.31407-.4115-8.05869a2.40146,2.40146,0,0,1,.68-1.17166c.99664-.889,1.43633-.51119,2.81558.11269a2.197,2.197,0,0,1,1.23846,1.20114,3.06985,3.06985,0,0,1,.31716,1.33788c.02588.47784.35794.9353.40551,1.41655a5.62513,5.62513,0,0,1-.42645,2.87782,2.97147,2.97147,0,0,0,.36682,3.02106c.55512-.19359,1.14327-.40126,1.73316-.60389,1.12129-.38508,1.65732-.16757,2.15107.886.24578.4516.34633,1.14553.679,1.48a9.635,9.635,0,0,0,2.85535.93684c2.24849.17605,1.182-2.62141,1.4344-4.02877.10257-1.77625.11833-1.77535,1.45151-2.63651"/><path class="cls-3" d="M229.13461,163.20166c-1.60743-.13292-3.30513-.59972-3.07706-2.54527a21.61306,21.61306,0,0,0-.04187-2.54892c.17772-2.01778,2.19639-3.32328,2.0173-5.467a1.48314,1.48314,0,0,0-.34526-.17158c-1.44589-.26863-1.88831-.88661-1.48193-2.32373a24.38377,24.38377,0,0,1,1.25-3.49855,4.01582,4.01582,0,0,0,.41552-3.1565c-2.01679-.3597-1.92648-3.3679-.89358-4.72883.90807-1.57008,2.94964-2.73109,2.525-4.75314a12.9881,12.9881,0,0,1-.181-4.53292c-.00955-.76572-.50826-1.66121-.26391-2.4022,1.0471-2.20849.70744-4.78852,2.33714-6.77758a2.18967,2.18967,0,0,1,3.562.33845,5.96109,5.96109,0,0,1,.31953,1.4767,22.71758,22.71758,0,0,1,.47843,3.51532c-.304.92657-.67965,1.83277-.93035,2.77269a23.88314,23.88314,0,0,0-.81872,7.91625,4.2634,4.2634,0,0,1-.84444,2.89763,2.78925,2.78925,0,0,0-.52105,2.26085,24.04977,24.04977,0,0,0,.40875,4.64018c.027.142.20518.25986.32381.37873,1.6588,1.63074,1.82586,3.77622,1.66541,5.94693a2.07658,2.07658,0,0,1-1.63369,2.30705c-1.81043.53486-.73386,3.48264-.39372,4.72679a4.02979,4.02979,0,0,0,1.31515,1.4988c1.55692,1.38944,1.544,3.69534,1.57748,5.60354a6.14084,6.14084,0,0,1-2.91763,4.562,2.91031,2.91031,0,0,0-.94137,3.64034c1.111,1.88153,2.53494,3.32294,2.8286,5.60415.25368,1.34991.62427,2.74355-.29367,4.06307-.58.97036-.44909,2.83176-2.15551,2.19095a2.74119,2.74119,0,0,0-.64409-.00726,2.83364,2.83364,0,0,0,.1639,2.47864,8.08749,8.08749,0,0,1,.45327,2.95616c-.04916,1.52142-1.28546,3.8099-3.02351,2.34809a2.32851,2.32851,0,0,1-.8696-1.65131,41.79753,41.79753,0,0,0-1.62766-8.39647,5.74942,5.74942,0,0,1,.18971-4.2379,7.58468,7.58468,0,0,0,.16395-2.66049.70709.70709,0,0,0-.28575-.5501c-.77986-.44505-.83938-1.16644-.87684-1.943.011-.86231-.45959-1.80157-.083-2.62884.64471-1.18277.86868-2.55989,1.84666-3.60114a4.45187,4.45187,0,0,0,1.55674-2.97534A24.627,24.627,0,0,0,229.13461,163.20166Z"/><path class="cls-3" d="M329.76973,168.44033a21.25122,21.25122,0,0,0,.47273,8.41356,9.54012,9.54012,0,0,1,.51189,3.835,49.69646,49.69646,0,0,1-1.01941,5.21356,1.55626,1.55626,0,0,1-1.3701.99979,1.0343,1.0343,0,0,1-.89977-1.08615c-.17536-2.3836-.76624-4.74026-.39-7.16091.24175-1.28122.11018-3.0487-.99473-3.84687-1.32411-.78128-1.43187-2.04136-1.66632-3.29292a18.54814,18.54814,0,0,1-.00032-7.13614c.6443-3.04722.35163-5.11729.87122-7.64611a8.35528,8.35528,0,0,0-.18267-2.40291c-.13946-.126-.16628-.17065-.202-.17951-2.07314-.5136-2.2949-1.05868-1.952-3.20943a16.08,16.08,0,0,1,2.1508-5.315c.48917-.87711,1.58979-2.17648.76122-2.91841-1.02836-.92083-3.20229.41784-3.60115-1.30774-.80163-2.22784.50194-4.025,2.09473-5.48142a2.77,2.77,0,0,0,.85869-2.71757c-.282-1.97826.1471-5.80663,2.77644-5.78422,3.41388.52621,2.12017,5.56114,2.23616,7.97284-.15955,2.04916.43889,4.11639-.24868,6.15974a5.9499,5.9499,0,0,0,.95511,5.70567c1.20486,1.58109.86451,3.15916.3806,4.7904a1.2,1.2,0,0,1-.70355.63058c-2.586.91725-.99888,5.9081-.19564,7.71548a3.17129,3.17129,0,0,0,.95983.99666,4.87625,4.87625,0,0,1,1.79756,2.57593c.44145,1.72281.40252,3.81447-1.03391,4.59738C331.10193,169.12558,329.88549,167.22164,329.76973,168.44033Z"/><path class="cls-3" d="M320.17158,178.79677a49.27211,49.27211,0,0,0,.10334,5.23518,1.3943,1.3943,0,0,0,.04673.20384c1.05133,3.42465,1.69426,7.50842,2.94889,10.27313.52468,1.1562-.35873-.87216,1.49178,3.64054a7.63228,7.63228,0,0,1,.64246,3.7261,6.4314,6.4314,0,0,1-.44545,2.09129c-.47472,1.993-2.41415,4.22512-4.18956,3.3614a3.75862,3.75862,0,0,1-2.09527-1.77423c-2.89556-4.646-1.34783-10.84121-.9226-15.7636a1.1258,1.1258,0,0,0,.00292-.148,134.12116,134.12116,0,0,1,.40247-15.40548c.06107-1.01914.14878-2.03671.22594-3.05487.03974-.52507.40937-.721.85145-.82809.49992-.12111.63236.235.83816.5901"/><path class="cls-5" d="M110.08172,211.32812c-.05692,1.53072-.14058,2.91868-.22,4.31512-.13606,2.3916-.05124,3.17683-.13,4.76434a29.05147,29.05147,0,0,0,.79793,8.6065,25.82155,25.82155,0,0,1,.67418,4.64733,20.33575,20.33575,0,0,1-2.00295,10.21846c-.82574,1.474-2.71318,2.20536-3.68392.76953-.08719-.129,0,0-.29782-.39242-1.03348-1.3618-1.19447-3.21525-1.58609-4.87441-.59445-2.51842.12519-5.22.70241-7.7304.693-2.89445,1.23962-5.86082,1.93493-8.75388.28469-2.009.42342-4.03831.65116-6.05595.09016-1.92427.42293-2.83422.62427-5.696.03613-.51349.00126-1.06546.51273-1.35716.33953-.19364.92448-.4882,1.09-.35449C109.74018,209.84726,110.4379,210.47721,110.08172,211.32812Z"/><path class="cls-6" d="M150.09089,39.09309c-.93411,1.02844-1.72731-.65748-2.06626-1.38266-.22536-.63374-3.99388-4.287-5.16215-6.691a14.56306,14.56306,0,0,0-3.4691-4.67756c-3.71933-2.36636-7.47675-4.98971-9.06859-9.34537-1.00647-2.40823-.07762-5.91626,3.127-4.61172,4.29523,2.14128,6.4059,6.48546,8.69473,10.43609.31942.59073.91676,1.07239,1.21441,1.64346.77769,2.53051,2.65763,4.54557,3.26618,7.17906a10.72045,10.72045,0,0,0,1.54569,2.7769A19.15228,19.15228,0,0,1,150.09089,39.09309Z"/><path class="cls-3" d="M346.53294,116.78323a1.16592,1.16592,0,0,1-1.22477-1.64065,37.68177,37.68177,0,0,0,.98613-4.14612c1.41428-6.2261,4.75992-11.68117,8.344-16.88072,1.66307-2.19851,3.56265-4.65925,6.4678-4.90645,2.0124-.46223,3.17976,2.393,2.34853,3.97819-.53869,1.09208,0,0-1.98077,3.002-1.62615,2.46457-4.12529,4.09031-6.25724,6.05841-2.07243,1.90456-4.10225,4.03087-4.91494,6.776a57.57855,57.57855,0,0,1-2.82023,6.83225C347.31056,116.24416,346.94518,116.73119,346.53294,116.78323Z"/><path class="cls-7" d="M316.62927,76.43615a3.83,3.83,0,0,1,1.12231,3.42489,3.32717,3.32717,0,0,1-2.25485,2.684c-1.361.42232-2.54184,1.54348-4.017,1.30024a5.08056,5.08056,0,0,0-1.49059.09853c-2.45787-.02037-4.94451-.05859-7.43048-.05724a10.62745,10.62745,0,0,0-6.36266.76284,3.47806,3.47806,0,0,1-1.80719.33061,1.20226,1.20226,0,0,1-.85589-.62414c-.08483-.17867.18408-.70074.422-.82613a15.85364,15.85364,0,0,0,2.68414-1.5403c3.43972-2.46211,7.79707-3.59941,11.5575-5.60687a9.95041,9.95041,0,0,1,5.60986-1.44644C314.71211,75.40762,315.86923,75.56731,316.62927,76.43615Z"/><path class="cls-5" d="M85.40317,103.73521a18.92408,18.92408,0,0,1-3.50344-3.35375A21.00211,21.00211,0,0,0,75.31857,95.544a44.76524,44.76524,0,0,0-8.928-3.14417,34.54825,34.54825,0,0,1-6.35383-2.33041A3.34346,3.34346,0,0,1,58.268,86.27909a2.47538,2.47538,0,0,1,3.46575-1.42382A53.19137,53.19137,0,0,1,79.12028,95.58774c2.31711,1.66176,3.96333,3.99766,6.05172,5.88678C86.01026,102.23281,85.98866,102.55731,85.40317,103.73521Z"/><path class="cls-5" d="M305.35545,251.67343a9.59438,9.59438,0,0,1,4.47182-.61068,3.08064,3.08064,0,0,1,3.11556,3.89733,4.9742,4.9742,0,0,1-2.74785,2.41177c-.418.05568-.82971.1857-1.24791.20569-.54338.02594-1.22.17435-1.61051-.08048a4.46253,4.46253,0,0,0-3.08792-.48437,23.68762,23.68762,0,0,0-2.72821.24046,23.131,23.131,0,0,1-3.895.25652c-.50918.01969-1.44665-.91135-1.61236-1.53491a1.51528,1.51528,0,0,1,.6025-1.70805"/><path class="cls-3" d="M168.89035,93.2033c.31217.27968.01172,1.60412-.08208,2.01286-.56267,2.45177.61908,2.42835.70424,4.25718a7.42066,7.42066,0,0,0,.7333,3.18876,8.71106,8.71106,0,0,1,.57,2.60438c.5923,3.02994,1.07321,6.33437-.36636,9.22295a1.74924,1.74924,0,0,1-2.75917.19845c-.99218-1.20458-1.06116-2.68306-1.31056-4.0947a7.39843,7.39843,0,0,1,.08917-3.4375,2.77023,2.77023,0,0,0,.09258-.62606,26.33344,26.33344,0,0,1,.17114-3.28823,65.68931,65.68931,0,0,0,.84682-7.85985A2.34806,2.34806,0,0,1,168.89035,93.2033Z"/><path class="cls-7" d="M254.3569,107.84848c.68628.13682.96554.38007,1.0838.93292a10.50731,10.50731,0,0,1,.35794,3.64052,2.65961,2.65961,0,0,0,.03982,1.152c.54505,1.6386.1848,3.29175.15777,4.94017.16885,3.646-.74138,7.327-1.3785,10.89182a1.8966,1.8966,0,0,1-1.4914,1.7041c-2.47905.28644-2.46265-4.72809-1.88867-6.36984a35.54562,35.54562,0,0,1,1.4293-5.96472C253.78073,115.21026,253.72413,111.53518,254.3569,107.84848Z"/><path class="cls-6" d="M432.67175,202.72941c-.04425-.54087,1.04091-1.17249,1.31666-.59763a14.81919,14.81919,0,0,1,.7679,2.05455,33.33712,33.33712,0,0,0,1.42165,6.647c.586,1.85694.90237,3.79762,1.378,5.69123a4.35391,4.35391,0,0,1-.75587,3.12816c-.44821.87562-2.18313.84071-2.75986-.08687a6.64491,6.64491,0,0,1-1.46393-3.84432c-.01209-1.83881-.4731-3.79613-.02708-5.61174C433.11569,207.643,433.01744,206.95518,432.67175,202.72941Z"/><path class="cls-8" d="M181.63963,92.2111c.0818-.366-.31743-1.29618.13985-1.2929C181.68744,91.28356,181.97925,92.09414,181.63963,92.2111Z"/></svg>